<?xml version="1.0" encoding="UTF-8" standalone="no"?>
<!-- Created with Inkscape (http://www.inkscape.org/) -->

<svg
   xmlns:dc="http://purl.org/dc/elements/1.1/"
   xmlns:cc="http://creativecommons.org/ns#"
   xmlns:rdf="http://www.w3.org/1999/02/22-rdf-syntax-ns#"
   xmlns:svg="http://www.w3.org/2000/svg"
   xmlns="http://www.w3.org/2000/svg"
   xmlns:sodipodi="http://sodipodi.sourceforge.net/DTD/sodipodi-0.dtd"
   xmlns:inkscape="http://www.inkscape.org/namespaces/inkscape"
   width="360"
   height="180"
   viewBox="0 0 95.249997 47.625001"
   version="1.1"
   id="svg8"
   inkscape:version="0.92.3 (2405546, 2018-03-11)"
   sodipodi:docname="chain.plain.svg">
  <defs
     id="defs2">
    <marker
       inkscape:isstock="true"
       style="overflow:visible"
       id="marker1165"
       refX="0"
       refY="0"
       orient="auto"
       inkscape:stockid="Arrow2Mend">
      <path
         transform="scale(-0.6)"
         d="M 8.7185878,4.0337352 -2.2072895,0.01601326 8.7185884,-4.0017078 c -1.7454984,2.3720609 -1.7354408,5.6174519 -6e-7,8.035443 z"
         style="fill:#000000;fill-opacity:1;fill-rule:evenodd;stroke:#000000;stroke-width:0.625;stroke-linejoin:round;stroke-opacity:1"
         id="path1163"
         inkscape:connector-curvature="0" />
    </marker>
    <marker
       inkscape:stockid="Arrow2Mend"
       orient="auto"
       refY="0"
       refX="0"
       id="Arrow2Mend"
       style="overflow:visible"
       inkscape:isstock="true"
       inkscape:collect="always">
      <path
         id="path908"
         style="fill:#000000;fill-opacity:1;fill-rule:evenodd;stroke:#000000;stroke-width:0.625;stroke-linejoin:round;stroke-opacity:1"
         d="M 8.7185878,4.0337352 -2.2072895,0.01601326 8.7185884,-4.0017078 c -1.7454984,2.3720609 -1.7354408,5.6174519 -6e-7,8.035443 z"
         transform="scale(-0.6)"
         inkscape:connector-curvature="0" />
    </marker>
    <marker
       inkscape:isstock="true"
       style="overflow:visible"
       id="marker1165-3"
       refX="0"
       refY="0"
       orient="auto"
       inkscape:stockid="Arrow2Mend">
      <path
         inkscape:connector-curvature="0"
         transform="scale(-0.6)"
         d="M 8.7185878,4.0337352 -2.2072895,0.01601326 8.7185884,-4.0017078 c -1.7454984,2.3720609 -1.7354408,5.6174519 -6e-7,8.035443 z"
         style="fill:#000000;fill-opacity:1;fill-rule:evenodd;stroke:#000000;stroke-width:0.625;stroke-linejoin:round;stroke-opacity:1"
         id="path1163-5" />
    </marker>
    <marker
       inkscape:isstock="true"
       style="overflow:visible"
       id="marker1165-36"
       refX="0"
       refY="0"
       orient="auto"
       inkscape:stockid="Arrow2Mend">
      <path
         transform="scale(-0.6)"
         d="M 8.7185878,4.0337352 -2.2072895,0.01601326 8.7185884,-4.0017078 c -1.7454984,2.3720609 -1.7354408,5.6174519 -6e-7,8.035443 z"
         style="fill:#000000;fill-opacity:1;fill-rule:evenodd;stroke:#000000;stroke-width:0.625;stroke-linejoin:round;stroke-opacity:1"
         id="path1163-7"
         inkscape:connector-curvature="0" />
    </marker>
    <marker
       inkscape:stockid="Arrow2Mend"
       orient="auto"
       refY="0"
       refX="0"
       id="Arrow2Mend-5"
       style="overflow:visible"
       inkscape:isstock="true"
       inkscape:collect="always">
      <path
         id="path908-3"
         style="fill:#000000;fill-opacity:1;fill-rule:evenodd;stroke:#000000;stroke-width:0.625;stroke-linejoin:round;stroke-opacity:1"
         d="M 8.7185878,4.0337352 -2.2072895,0.01601326 8.7185884,-4.0017078 c -1.7454984,2.3720609 -1.7354408,5.6174519 -6e-7,8.035443 z"
         transform="scale(-0.6)"
         inkscape:connector-curvature="0" />
    </marker>
    <marker
       inkscape:stockid="Arrow2Mend"
       orient="auto"
       refY="0"
       refX="0"
       id="Arrow2Mend-5-0"
       style="overflow:visible"
       inkscape:isstock="true"
       inkscape:collect="always">
      <path
         id="path908-3-6"
         style="fill:#000000;fill-opacity:1;fill-rule:evenodd;stroke:#000000;stroke-width:0.625;stroke-linejoin:round;stroke-opacity:1"
         d="M 8.7185878,4.0337352 -2.2072895,0.01601326 8.7185884,-4.0017078 c -1.7454984,2.3720609 -1.7354408,5.6174519 -6e-7,8.035443 z"
         transform="scale(-0.6)"
         inkscape:connector-curvature="0" />
    </marker>
    <marker
       inkscape:isstock="true"
       style="overflow:visible"
       id="marker1165-7"
       refX="0"
       refY="0"
       orient="auto"
       inkscape:stockid="Arrow2Mend">
      <path
         transform="scale(-0.6)"
         d="M 8.7185878,4.0337352 -2.2072895,0.01601326 8.7185884,-4.0017078 c -1.7454984,2.3720609 -1.7354408,5.6174519 -6e-7,8.035443 z"
         style="fill:#000000;fill-opacity:1;fill-rule:evenodd;stroke:#000000;stroke-width:0.625;stroke-linejoin:round;stroke-opacity:1"
         id="path1163-9"
         inkscape:connector-curvature="0" />
    </marker>
  </defs>
  <sodipodi:namedview
     id="base"
     pagecolor="#ffffff"
     bordercolor="#666666"
     borderopacity="1.0"
     inkscape:pageopacity="0.0"
     inkscape:pageshadow="2"
     inkscape:zoom="2.7933333"
     inkscape:cx="154.17021"
     inkscape:cy="146.0626"
     inkscape:document-units="mm"
     inkscape:current-layer="layer1"
     showgrid="false"
     units="px"
     inkscape:window-width="1920"
     inkscape:window-height="1017"
     inkscape:window-x="0"
     inkscape:window-y="34"
     inkscape:window-maximized="1" />
  <metadata
     id="metadata5">
    <rdf:RDF>
      <cc:Work
         rdf:about="">
        <dc:format>image/svg+xml</dc:format>
        <dc:type
           rdf:resource="http://purl.org/dc/dcmitype/StillImage" />
        <dc:title></dc:title>
      </cc:Work>
    </rdf:RDF>
  </metadata>
  <g
     inkscape:label="Layer 1"
     inkscape:groupmode="layer"
     id="layer1"
     transform="translate(0,-249.37498)">
    <path
       style="opacity:1;vector-effect:none;fill:#b3d6ff;fill-opacity:1;stroke:#000000;stroke-width:0.26458332;stroke-linecap:round;stroke-linejoin:round;stroke-miterlimit:4;stroke-dasharray:none;stroke-dashoffset:0;stroke-opacity:1"
       d="m 14.798984,276.57211 h 14.586813 v 14.58682 H 14.798984 Z"
       id="rect817" />
    <path
       style="opacity:1;vector-effect:none;fill:#b3d6ff;fill-opacity:1;stroke:#000000;stroke-width:0.26458332;stroke-linecap:round;stroke-linejoin:round;stroke-miterlimit:4;stroke-dasharray:none;stroke-dashoffset:0;stroke-opacity:1"
       d="m 41.25732,276.57211 h 14.586814 v 14.58682 H 41.25732 Z"
       id="rect817-6" />
    <path
       style="opacity:1;vector-effect:none;fill:#b3d6ff;fill-opacity:1;stroke:#000000;stroke-width:0.26458332;stroke-linecap:round;stroke-linejoin:round;stroke-miterlimit:4;stroke-dasharray:none;stroke-dashoffset:0;stroke-opacity:1"
       d="m 67.715652,276.57211 h 14.586815 v 14.58682 H 67.715652 Z"
       id="rect817-6-7" />
    <path
       style="fill:none;stroke:#000000;stroke-width:0.26499999;stroke-linecap:butt;stroke-linejoin:miter;stroke-miterlimit:4;stroke-dasharray:none;stroke-opacity:1;marker-end:url(#Arrow2Mend)"
       d="m 29.387333,283.87866 11.923028,-4.8e-4"
       id="path864"
       inkscape:connector-curvature="0"
       sodipodi:nodetypes="cc" />
    <path
       style="fill:none;stroke:#000000;stroke-width:0.26499999;stroke-linecap:butt;stroke-linejoin:miter;stroke-miterlimit:4;stroke-dasharray:none;stroke-opacity:1;marker-end:url(#marker1165)"
       d="M 55.845522,283.87818 H 67.768696"
       id="path864-5"
       inkscape:connector-curvature="0"
       sodipodi:nodetypes="cc" />
    <path
       style="fill:none;stroke:#000000;stroke-width:0.26499999;stroke-linecap:butt;stroke-linejoin:miter;stroke-miterlimit:4;stroke-dasharray:none;stroke-opacity:1;marker-end:url(#marker1165-3)"
       d="m 82.303857,260.59485 h 6.373476 v 11.89181 H 9.1340003 v 11.392 h 5.7180347"
       id="path864-5-6"
       inkscape:connector-curvature="0"
       sodipodi:nodetypes="cccccc" />
    <g
       aria-label="B1"
       style="font-style:normal;font-variant:normal;font-weight:normal;font-stretch:normal;font-size:10.58333302px;line-height:1.25;font-family:'Gentium Plus';-inkscape-font-specification:'Gentium Plus';letter-spacing:0px;word-spacing:0px;fill:#000000;fill-opacity:1;stroke:none;stroke-width:0.26458332"
       id="text1883">
      <path
         d="m 17.979591,279.02965 h 2.134237 q 1.503784,0 2.175578,0.44959 0.671793,0.44958 0.671793,1.4211 0,0.67179 -0.377238,1.11104 -0.37207,0.43409 -1.090372,0.56328 v 0.0517 q 1.720825,0.29456 1.720825,1.80868 0,1.01286 -0.687297,1.5813 -0.682129,0.56844 -1.912028,0.56844 h -2.635498 z m 0.8785,3.23495 h 1.44694 q 0.930175,0 1.338419,-0.28939 0.408244,-0.29456 0.408244,-0.98702 0,-0.63562 -0.454753,-0.91467 -0.454752,-0.28422 -1.44694,-0.28422 h -1.29191 z m 0,0.74414 v 2.8267 h 1.576131 q 0.914673,0 1.374593,-0.3514 0.465088,-0.35657 0.465088,-1.11104 0,-0.7028 -0.475423,-1.03353 -0.470256,-0.33073 -1.436605,-0.33073 z"
         style="font-style:normal;font-variant:normal;font-weight:normal;font-stretch:normal;font-family:'Open Sans';-inkscape-font-specification:'Open Sans';stroke-width:0.26458332"
         id="path1490" />
      <path
         d="m 26.205187,288.70141 h -0.544153 v -3.50004 q 0,-0.43667 0.02687,-0.82631 -0.07054,0.0705 -0.157872,0.1478 -0.08733,0.0772 -0.799434,0.655 l -0.295589,-0.38293 1.29992,-1.00433 h 0.470256 z"
         style="font-size:64.99999762%;baseline-shift:sub"
         id="path1492" />
    </g>
    <g
       aria-label="B2"
       style="font-style:normal;font-variant:normal;font-weight:normal;font-stretch:normal;font-size:10.58333302px;line-height:1.25;font-family:'Gentium Plus';-inkscape-font-specification:'Gentium Plus';letter-spacing:0px;word-spacing:0px;fill:#000000;fill-opacity:1;stroke:none;stroke-width:0.26458332"
       id="text1883-5">
      <path
         d="m 43.856827,279.02965 h 2.134236 q 1.503784,0 2.175578,0.44959 0.671794,0.44958 0.671794,1.4211 0,0.67179 -0.377238,1.11104 -0.372071,0.43409 -1.090373,0.56328 v 0.0517 q 1.720825,0.29456 1.720825,1.80868 0,1.01286 -0.687296,1.5813 -0.682129,0.56844 -1.912028,0.56844 h -2.635498 z m 0.878499,3.23495 h 1.44694 q 0.930176,0 1.33842,-0.28939 0.408243,-0.29456 0.408243,-0.98702 0,-0.63562 -0.454752,-0.91467 -0.454753,-0.28422 -1.44694,-0.28422 h -1.291911 z m 0,0.74414 v 2.8267 h 1.576131 q 0.914673,0 1.374593,-0.3514 0.465088,-0.35657 0.465088,-1.11104 0,-0.7028 -0.475423,-1.03353 -0.470256,-0.33073 -1.436605,-0.33073 z"
         style="font-style:normal;font-variant:normal;font-weight:normal;font-stretch:normal;font-family:'Open Sans';-inkscape-font-specification:'Open Sans';stroke-width:0.26458332"
         id="path1495" />
      <path
         d="m 53.244625,288.70141 h -3.227968 v -0.48033 l 1.293203,-1.29992 q 0.591178,-0.5979 0.77928,-0.85318 0.188103,-0.25528 0.282154,-0.49712 0.09405,-0.24185 0.09405,-0.52064 0,-0.393 -0.238487,-0.62141 -0.238487,-0.23177 -0.661717,-0.23177 -0.305666,0 -0.581101,0.10077 -0.272076,0.10077 -0.607973,0.36612 l -0.295589,-0.37956 q 0.678511,-0.56431 1.477945,-0.56431 0.691948,0 1.084947,0.35606 0.392999,0.35269 0.392999,0.95058 0,0.4669 -0.261999,0.92372 -0.262,0.45682 -0.980819,1.15548 l -1.07487,1.05136 v 0.0269 h 2.525944 z"
         style="font-size:64.99999762%;baseline-shift:sub"
         id="path1497" />
    </g>
    <g
       aria-label="B3"
       style="font-style:normal;font-variant:normal;font-weight:normal;font-stretch:normal;font-size:10.58333302px;line-height:1.25;font-family:'Gentium Plus';-inkscape-font-specification:'Gentium Plus';letter-spacing:0px;word-spacing:0px;fill:#000000;fill-opacity:1;stroke:none;stroke-width:0.26458332"
       id="text1883-1">
      <path
         d="m 70.331955,278.99605 h 2.134237 q 1.503784,0 2.175577,0.44959 0.671794,0.44958 0.671794,1.4211 0,0.67179 -0.377238,1.11104 -0.37207,0.43409 -1.090373,0.56328 v 0.0517 q 1.720825,0.29456 1.720825,1.80868 0,1.01286 -0.687296,1.5813 -0.682129,0.56844 -1.912028,0.56844 h -2.635498 z m 0.878499,3.23495 h 1.44694 q 0.930176,0 1.33842,-0.28939 0.408244,-0.29456 0.408244,-0.98702 0,-0.63562 -0.454753,-0.91467 -0.454753,-0.28422 -1.44694,-0.28422 h -1.291911 z m 0,0.74414 v 2.8267 h 1.576131 q 0.914673,0 1.374593,-0.3514 0.465088,-0.35657 0.465088,-1.11104 0,-0.7028 -0.475423,-1.03353 -0.470255,-0.33073 -1.436605,-0.33073 z"
         style="font-style:normal;font-variant:normal;font-weight:normal;font-stretch:normal;font-family:'Open Sans';-inkscape-font-specification:'Open Sans';stroke-width:0.26458332"
         id="path1500" />
      <path
         d="m 79.53501,284.91249 q 0,0.47025 -0.265358,0.7692 -0.262,0.29895 -0.745691,0.39972 v 0.0269 q 0.591178,0.0739 0.87669,0.3762 0.285513,0.30231 0.285513,0.79272 0,0.70203 -0.487051,1.08159 -0.48705,0.3762 -1.383894,0.3762 -0.389641,0 -0.71546,-0.0605 -0.322461,-0.0571 -0.628127,-0.2049 v -0.53071 q 0.319101,0.15787 0.678511,0.24184 0.362769,0.0806 0.685229,0.0806 1.273049,0 1.273049,-0.99761 0,-0.89349 -1.404048,-0.89349 h -0.483692 v -0.48033 h 0.49041 q 0.574383,0 0.91028,-0.25192 0.335897,-0.25529 0.335897,-0.70539 0,-0.35941 -0.248564,-0.5643 -0.245205,-0.2049 -0.668434,-0.2049 -0.322461,0 -0.607974,0.0873 -0.285512,0.0873 -0.651639,0.32246 l -0.282154,-0.3762 q 0.302307,-0.23849 0.695307,-0.37285 0.396358,-0.13772 0.833024,-0.13772 0.71546,0 1.111818,0.32918 0.396358,0.32582 0.396358,0.89685 z"
         style="font-size:64.99999762%;baseline-shift:sub"
         id="path1502" />
    </g>
    <path
       style="opacity:1;vector-effect:none;fill:#ffdd99;fill-opacity:1;stroke:#000000;stroke-width:0.26458332;stroke-linecap:round;stroke-linejoin:round;stroke-miterlimit:4;stroke-dasharray:none;stroke-dashoffset:0;stroke-opacity:1"
       d="m 14.798984,253.28883 h 14.586814 v 14.58682 H 14.798984 Z"
       id="rect817-5" />
    <path
       style="opacity:1;vector-effect:none;fill:#ffdd99;fill-opacity:1;stroke:#000000;stroke-width:0.26458332;stroke-linecap:round;stroke-linejoin:round;stroke-miterlimit:4;stroke-dasharray:none;stroke-dashoffset:0;stroke-opacity:1"
       d="m 41.257324,253.28883 h 14.586815 v 14.58682 H 41.257324 Z"
       id="rect817-6-6" />
    <path
       style="opacity:1;vector-effect:none;fill:#ffdd99;fill-opacity:1;stroke:#000000;stroke-width:0.26458332;stroke-linecap:round;stroke-linejoin:round;stroke-miterlimit:4;stroke-dasharray:none;stroke-dashoffset:0;stroke-opacity:1"
       d="m 67.715652,253.28883 h 14.586815 v 14.58682 H 67.715652 Z"
       id="rect817-6-7-2" />
    <path
       style="fill:none;stroke:#000000;stroke-width:0.26499999;stroke-linecap:butt;stroke-linejoin:miter;stroke-miterlimit:4;stroke-dasharray:none;stroke-opacity:1;marker-end:url(#Arrow2Mend-5)"
       d="m 29.387333,260.59529 11.923028,-4.8e-4"
       id="path864-9"
       inkscape:connector-curvature="0"
       sodipodi:nodetypes="cc" />
    <path
       style="fill:none;stroke:#000000;stroke-width:0.26499999;stroke-linecap:butt;stroke-linejoin:miter;stroke-miterlimit:4;stroke-dasharray:none;stroke-opacity:1;marker-end:url(#marker1165-36)"
       d="M 55.845521,260.59481 H 67.768697"
       id="path864-5-1"
       inkscape:connector-curvature="0"
       sodipodi:nodetypes="cc" />
    <g
       aria-label="A1"
       style="font-style:normal;font-variant:normal;font-weight:normal;font-stretch:normal;font-size:10.58333302px;line-height:1.25;font-family:'Gentium Plus';-inkscape-font-specification:'Gentium Plus';letter-spacing:0px;word-spacing:0px;fill:#000000;fill-opacity:1;stroke:none;stroke-width:0.26458332"
       id="text1883-2">
      <path
         d="M 23.330687,263.31696 22.390176,260.914 h -3.028239 l -0.930176,2.40296 h -0.888834 l 2.986897,-7.5861 h 0.738973 l 2.971395,7.5861 z m -1.214396,-3.19361 -0.878499,-2.34094 q -0.170533,-0.44442 -0.3514,-1.09037 -0.113688,0.49609 -0.325562,1.09037 l -0.888834,2.34094 z"
         style="font-style:normal;font-variant:normal;font-weight:normal;font-stretch:normal;font-family:'Open Sans';-inkscape-font-specification:'Open Sans';stroke-width:0.26458332"
         id="path1508" />
      <path
         d="m 26.641854,265.43362 h -0.544152 v -3.50004 q 0,-0.43667 0.02687,-0.82631 -0.07054,0.0705 -0.157871,0.1478 -0.08733,0.0772 -0.799434,0.65499 l -0.29559,-0.38292 1.299921,-1.00433 h 0.470255 z"
         style="font-size:64.99999762%;baseline-shift:sub"
         id="path1510" />
    </g>
    <g
       aria-label="A2"
       style="font-style:normal;font-variant:normal;font-weight:normal;font-stretch:normal;font-size:10.58333302px;line-height:1.25;font-family:'Gentium Plus';-inkscape-font-specification:'Gentium Plus';letter-spacing:0px;word-spacing:0px;fill:#000000;fill-opacity:1;stroke:none;stroke-width:0.26458332"
       id="text1883-5-0">
      <path
         d="M 49.207926,263.31696 48.267415,260.914 h -3.028239 l -0.930175,2.40296 h -0.888835 l 2.986898,-7.5861 h 0.738973 l 2.971394,7.5861 z m -1.214396,-3.19361 -0.878499,-2.34094 q -0.170532,-0.44442 -0.3514,-1.09037 -0.113688,0.49609 -0.325561,1.09037 l -0.888835,2.34094 z"
         style="font-style:normal;font-variant:normal;font-weight:normal;font-stretch:normal;font-family:'Open Sans';-inkscape-font-specification:'Open Sans';stroke-width:0.26458332"
         id="path1513" />
      <path
         d="m 53.681297,265.43362 h -3.227969 v -0.48033 l 1.293203,-1.29992 q 0.591178,-0.5979 0.779281,-0.85318 0.188102,-0.25528 0.282153,-0.49713 0.09405,-0.24184 0.09405,-0.52064 0,-0.393 -0.238487,-0.6214 -0.238486,-0.23177 -0.661716,-0.23177 -0.305666,0 -0.581102,0.10077 -0.272076,0.10076 -0.607973,0.36612 l -0.295589,-0.37956 q 0.678511,-0.56431 1.477946,-0.56431 0.691947,0 1.084946,0.35605 0.393,0.3527 0.393,0.95059 0,0.4669 -0.262,0.92372 -0.261999,0.45682 -0.980819,1.15548 l -1.074869,1.05136 v 0.0269 h 2.525944 z"
         style="font-size:64.99999762%;baseline-shift:sub"
         id="path1515" />
    </g>
    <g
       aria-label="A3"
       style="font-style:normal;font-variant:normal;font-weight:normal;font-stretch:normal;font-size:10.58333302px;line-height:1.25;font-family:'Gentium Plus';-inkscape-font-specification:'Gentium Plus';letter-spacing:0px;word-spacing:0px;fill:#000000;fill-opacity:1;stroke:none;stroke-width:0.26458332"
       id="text1883-1-3">
      <path
         d="m 75.683047,263.28336 -0.940511,-2.40296 h -3.028239 l -0.930176,2.40296 h -0.888834 l 2.986897,-7.5861 h 0.738973 l 2.971395,7.5861 z m -1.214396,-3.19361 -0.8785,-2.34094 q -0.170532,-0.44442 -0.351399,-1.09037 -0.113689,0.49609 -0.325562,1.09037 l -0.888834,2.34094 z"
         style="font-style:normal;font-variant:normal;font-weight:normal;font-stretch:normal;font-family:'Open Sans';-inkscape-font-specification:'Open Sans';stroke-width:0.26458332"
         id="path1518" />
      <path
         d="m 79.971674,261.6447 q 0,0.47025 -0.265359,0.7692 -0.261999,0.29895 -0.74569,0.39972 v 0.0269 q 0.591178,0.0739 0.87669,0.3762 0.285512,0.30231 0.285512,0.79272 0,0.70202 -0.48705,1.08159 -0.48705,0.3762 -1.383895,0.3762 -0.38964,0 -0.71546,-0.0605 -0.322461,-0.0571 -0.628127,-0.2049 v -0.53071 q 0.319102,0.15787 0.678512,0.24184 0.362768,0.0806 0.685229,0.0806 1.273049,0 1.273049,-0.99762 0,-0.89348 -1.404049,-0.89348 h -0.483691 v -0.48033 h 0.490409 q 0.574384,0 0.910281,-0.25193 0.335896,-0.25528 0.335896,-0.70538 0,-0.35941 -0.248563,-0.56431 -0.245205,-0.20489 -0.668435,-0.20489 -0.322461,0 -0.607973,0.0873 -0.285512,0.0873 -0.65164,0.32246 l -0.282153,-0.3762 q 0.302307,-0.23849 0.695306,-0.37285 0.396358,-0.13772 0.833024,-0.13772 0.71546,0 1.111819,0.32918 0.396358,0.32582 0.396358,0.89685 z"
         style="font-size:64.99999762%;baseline-shift:sub"
         id="path1520" />
    </g>
    <path
       style="fill:none;stroke:#000000;stroke-width:0.26499999;stroke-linecap:butt;stroke-linejoin:miter;stroke-miterlimit:4;stroke-dasharray:none;stroke-opacity:1;marker-end:url(#Arrow2Mend-5-0)"
       d="m 2.9289976,260.59529 11.9230274,-4.8e-4"
       id="path864-9-2"
       inkscape:connector-curvature="0"
       sodipodi:nodetypes="cc" />
    <path
       style="fill:none;stroke:#000000;stroke-width:0.26499999;stroke-linecap:butt;stroke-linejoin:miter;stroke-miterlimit:4;stroke-dasharray:none;stroke-opacity:1;marker-end:url(#marker1165-7)"
       d="M 82.303857,283.87818 H 94.227031"
       id="path864-5-2"
       inkscape:connector-curvature="0"
       sodipodi:nodetypes="cc" />
  </g>
</svg>
