<?xml version="1.0" encoding="UTF-8" standalone="no"?>
<!-- Created with Inkscape (http://www.inkscape.org/) -->

<svg
   xmlns:dc="http://purl.org/dc/elements/1.1/"
   xmlns:cc="http://creativecommons.org/ns#"
   xmlns:rdf="http://www.w3.org/1999/02/22-rdf-syntax-ns#"
   xmlns:svg="http://www.w3.org/2000/svg"
   xmlns="http://www.w3.org/2000/svg"
   xmlns:sodipodi="http://sodipodi.sourceforge.net/DTD/sodipodi-0.dtd"
   xmlns:inkscape="http://www.inkscape.org/namespaces/inkscape"
   width="360"
   height="120"
   viewBox="0 0 95.249997 31.750001"
   version="1.1"
   id="svg8"
   inkscape:version="0.92.3 (2405546, 2018-03-11)"
   sodipodi:docname="cycle.plain.svg">
  <defs
     id="defs2">
    <marker
       inkscape:isstock="true"
       style="overflow:visible"
       id="marker1165"
       refX="0"
       refY="0"
       orient="auto"
       inkscape:stockid="Arrow2Mend">
      <path
         transform="scale(-0.6)"
         d="M 8.7185878,4.0337352 -2.2072895,0.01601326 8.7185884,-4.0017078 c -1.7454984,2.3720609 -1.7354408,5.6174519 -6e-7,8.035443 z"
         style="fill:#000000;fill-opacity:1;fill-rule:evenodd;stroke:#000000;stroke-width:0.625;stroke-linejoin:round;stroke-opacity:1"
         id="path1163"
         inkscape:connector-curvature="0" />
    </marker>
    <marker
       inkscape:stockid="Arrow2Mend"
       orient="auto"
       refY="0"
       refX="0"
       id="Arrow2Mend"
       style="overflow:visible"
       inkscape:isstock="true"
       inkscape:collect="always">
      <path
         id="path908"
         style="fill:#000000;fill-opacity:1;fill-rule:evenodd;stroke:#000000;stroke-width:0.625;stroke-linejoin:round;stroke-opacity:1"
         d="M 8.7185878,4.0337352 -2.2072895,0.01601326 8.7185884,-4.0017078 c -1.7454984,2.3720609 -1.7354408,5.6174519 -6e-7,8.035443 z"
         transform="scale(-0.6)"
         inkscape:connector-curvature="0" />
    </marker>
    <marker
       inkscape:isstock="true"
       style="overflow:visible"
       id="marker1165-3"
       refX="0"
       refY="0"
       orient="auto"
       inkscape:stockid="Arrow2Mend">
      <path
         inkscape:connector-curvature="0"
         transform="scale(-0.6)"
         d="M 8.7185878,4.0337352 -2.2072895,0.01601326 8.7185884,-4.0017078 c -1.7454984,2.3720609 -1.7354408,5.6174519 -6e-7,8.035443 z"
         style="fill:#000000;fill-opacity:1;fill-rule:evenodd;stroke:#000000;stroke-width:0.625;stroke-linejoin:round;stroke-opacity:1"
         id="path1163-5" />
    </marker>
  </defs>
  <sodipodi:namedview
     id="base"
     pagecolor="#ffffff"
     bordercolor="#666666"
     borderopacity="1.0"
     inkscape:pageopacity="0.0"
     inkscape:pageshadow="2"
     inkscape:zoom="2.7933333"
     inkscape:cx="204.28954"
     inkscape:cy="147.49458"
     inkscape:document-units="mm"
     inkscape:current-layer="layer1"
     showgrid="false"
     units="px"
     inkscape:window-width="1920"
     inkscape:window-height="1017"
     inkscape:window-x="0"
     inkscape:window-y="34"
     inkscape:window-maximized="1" />
  <metadata
     id="metadata5">
    <rdf:RDF>
      <cc:Work
         rdf:about="">
        <dc:format>image/svg+xml</dc:format>
        <dc:type
           rdf:resource="http://purl.org/dc/dcmitype/StillImage" />
        <dc:title></dc:title>
      </cc:Work>
    </rdf:RDF>
  </metadata>
  <g
     inkscape:label="Layer 1"
     inkscape:groupmode="layer"
     id="layer1"
     transform="translate(0,-265.24998)">
    <path
       style="opacity:1;vector-effect:none;fill:#ffdd99;fill-opacity:1;stroke:#000000;stroke-width:0.26458332;stroke-linecap:round;stroke-linejoin:round;stroke-miterlimit:4;stroke-dasharray:none;stroke-dashoffset:0;stroke-opacity:1"
       d="m 14.798984,276.57211 h 14.586813 v 14.58682 H 14.798984 Z"
       id="rect817" />
    <path
       style="opacity:1;vector-effect:none;fill:#ffdd99;fill-opacity:1;stroke:#000000;stroke-width:0.26458332;stroke-linecap:round;stroke-linejoin:round;stroke-miterlimit:4;stroke-dasharray:none;stroke-dashoffset:0;stroke-opacity:1"
       d="m 41.25732,276.57211 h 14.586814 v 14.58682 H 41.25732 Z"
       id="rect817-6" />
    <path
       style="opacity:1;vector-effect:none;fill:#ffdd99;fill-opacity:1;stroke:#000000;stroke-width:0.26458332;stroke-linecap:round;stroke-linejoin:round;stroke-miterlimit:4;stroke-dasharray:none;stroke-dashoffset:0;stroke-opacity:1"
       d="m 67.715652,276.57211 h 14.586815 v 14.58682 H 67.715652 Z"
       id="rect817-6-7" />
    <path
       style="fill:none;stroke:#000000;stroke-width:0.26499999;stroke-linecap:butt;stroke-linejoin:miter;stroke-miterlimit:4;stroke-dasharray:none;stroke-opacity:1;marker-end:url(#Arrow2Mend)"
       d="m 29.387333,283.87866 11.923028,-4.8e-4"
       id="path864"
       inkscape:connector-curvature="0"
       sodipodi:nodetypes="cc" />
    <path
       style="fill:none;stroke:#000000;stroke-width:0.26499999;stroke-linecap:butt;stroke-linejoin:miter;stroke-miterlimit:4;stroke-dasharray:none;stroke-opacity:1;marker-end:url(#marker1165)"
       d="M 55.845522,283.87818 H 67.768696"
       id="path864-5"
       inkscape:connector-curvature="0"
       sodipodi:nodetypes="cc" />
    <path
       style="fill:none;stroke:#000000;stroke-width:0.26499999;stroke-linecap:butt;stroke-linejoin:miter;stroke-miterlimit:4;stroke-dasharray:none;stroke-opacity:1;marker-end:url(#marker1165-3)"
       d="m 82.303857,283.87818 h 6.373476 V 272.48666 H 9.1340003 v 11.392 h 5.7180347"
       id="path864-5-6"
       inkscape:connector-curvature="0"
       sodipodi:nodetypes="cccccc" />
    <g
       aria-label="1"
       style="font-style:normal;font-variant:normal;font-weight:normal;font-stretch:normal;font-size:10.58333302px;line-height:1.25;font-family:'Gentium Plus';-inkscape-font-specification:'Gentium Plus';letter-spacing:0px;word-spacing:0px;fill:#000000;fill-opacity:1;stroke:none;stroke-width:0.26458332"
       id="text1883">
      <path
         d="m 23.454064,287.64307 h -0.837158 v -5.38469 q 0,-0.67179 0.04134,-1.27124 -0.108521,0.10852 -0.242879,0.22738 -0.134359,0.11885 -1.229899,1.00769 l -0.454753,-0.58911 1.999878,-1.54513 h 0.72347 z"
         style="font-style:normal;font-variant:normal;font-weight:normal;font-stretch:normal;font-family:'Open Sans';-inkscape-font-specification:'Open Sans';stroke-width:0.26458332"
         id="path1956" />
    </g>
    <g
       aria-label="2"
       style="font-style:normal;font-variant:normal;font-weight:normal;font-stretch:normal;font-size:10.58333302px;line-height:1.25;font-family:'Gentium Plus';-inkscape-font-specification:'Gentium Plus';letter-spacing:0px;word-spacing:0px;fill:#000000;fill-opacity:1;stroke:none;stroke-width:0.26458332"
       id="text1883-5">
      <path
         d="m 51.03378,287.69733 h -4.966105 v -0.73898 l 1.989543,-1.99987 q 0.909505,-0.91984 1.198893,-1.31259 0.289388,-0.39274 0.434082,-0.76481 0.144694,-0.37207 0.144694,-0.80098 0,-0.60462 -0.366903,-0.95602 -0.366902,-0.35656 -1.018025,-0.35656 -0.470256,0 -0.894003,0.15503 -0.418579,0.15503 -0.935343,0.56327 l -0.454753,-0.58394 q 1.043864,-0.86817 2.273763,-0.86817 1.064535,0 1.669149,0.54777 0.604614,0.5426 0.604614,1.46245 0,0.7183 -0.403076,1.4211 -0.403076,0.7028 -1.508952,1.77767 l -1.653645,1.61747 v 0.0413 h 3.886067 z"
         style="font-style:normal;font-variant:normal;font-weight:normal;font-stretch:normal;font-family:'Open Sans';-inkscape-font-specification:'Open Sans';stroke-width:0.26458332"
         id="path1959" />
    </g>
    <g
       aria-label="3"
       style="font-style:normal;font-variant:normal;font-weight:normal;font-stretch:normal;font-size:10.58333302px;line-height:1.25;font-family:'Gentium Plus';-inkscape-font-specification:'Gentium Plus';letter-spacing:0px;word-spacing:0px;fill:#000000;fill-opacity:1;stroke:none;stroke-width:0.26458332"
       id="text1883-1">
      <path
         d="m 77.249232,281.86824 q 0,0.72347 -0.408244,1.18339 -0.403076,0.45992 -1.147217,0.61495 v 0.0413 q 0.909505,0.11368 1.348755,0.57877 0.43925,0.46509 0.43925,1.21957 0,1.08003 -0.749308,1.66398 -0.749309,0.57877 -2.129069,0.57877 -0.599447,0 -1.100708,-0.093 -0.496094,-0.0879 -0.96635,-0.31523 v -0.81649 q 0.490926,0.24288 1.043864,0.37207 0.558106,0.12403 1.054199,0.12403 1.958537,0 1.958537,-1.53479 0,-1.3746 -2.160075,-1.3746 h -0.74414 v -0.73897 h 0.754476 q 0.883667,0 1.400431,-0.38757 0.516764,-0.39274 0.516764,-1.08521 0,-0.55294 -0.382405,-0.86816 -0.377238,-0.31523 -1.028361,-0.31523 -0.496094,0 -0.935344,0.13436 -0.439249,0.13436 -1.002523,0.49609 l -0.434082,-0.57877 q 0.465088,-0.36691 1.069703,-0.57361 0.609781,-0.21187 1.281575,-0.21187 1.100708,0 1.71049,0.50642 0.609782,0.50127 0.609782,1.37977 z"
         style="font-style:normal;font-variant:normal;font-weight:normal;font-stretch:normal;font-family:'Open Sans';-inkscape-font-specification:'Open Sans';stroke-width:0.26458332"
         id="path1962" />
    </g>
  </g>
</svg>
