<?xml version="1.0" encoding="UTF-8" standalone="no"?>
<svg
   xmlns:dc="http://purl.org/dc/elements/1.1/"
   xmlns:cc="http://creativecommons.org/ns#"
   xmlns:rdf="http://www.w3.org/1999/02/22-rdf-syntax-ns#"
   xmlns:svg="http://www.w3.org/2000/svg"
   xmlns="http://www.w3.org/2000/svg"
   id="svg8"
   version="1.1"
   viewBox="0 0 105.83333 37.041668"
   height="140"
   width="400">
  <defs
     id="defs2" />
  <metadata
     id="metadata5">
    <rdf:RDF>
      <cc:Work
         rdf:about="">
        <dc:format>image/svg+xml</dc:format>
        <dc:type
           rdf:resource="http://purl.org/dc/dcmitype/StillImage" />
        <dc:title></dc:title>
      </cc:Work>
    </rdf:RDF>
  </metadata>
  <g
     transform="translate(0,-259.95831)"
     id="layer1">
    <rect
       y="270.58884"
       x="5.6666732"
       height="13.639987"
       width="95.382591"
       id="rect815"
       style="opacity:1;vector-effect:none;fill:#91fffd;fill-opacity:1;stroke:#000005;stroke-width:0.26458333;stroke-linecap:round;stroke-linejoin:round;stroke-miterlimit:4;stroke-dasharray:none;stroke-dashoffset:0;stroke-opacity:1" />
    <rect
       y="270.58237"
       x="10.017368"
       height="13.652969"
       width="30.986273"
       id="rect819"
       style="opacity:1;vector-effect:none;fill:#ff8873;fill-opacity:1;stroke:#000005;stroke-width:0.26458333;stroke-linecap:round;stroke-linejoin:round;stroke-miterlimit:4;stroke-dasharray:none;stroke-dashoffset:0;stroke-opacity:1" />
    <path
       id="path821"
       d="m 5.8001457,285.87226 v 1.33957 h 3.7639996 v -1.30608"
       style="fill:none;stroke:#000000;stroke-width:0.26499999;stroke-linecap:round;stroke-linejoin:round;stroke-miterlimit:4;stroke-dasharray:none;stroke-opacity:1" />
    <path
       id="path823"
       d="m 10.612382,285.91412 v 1.29771 h 29.761114 v -1.23911"
       style="fill:none;stroke:#000000;stroke-width:0.26499999;stroke-linecap:round;stroke-linejoin:round;stroke-miterlimit:4;stroke-dasharray:none;stroke-opacity:1" />
    <path
       id="path825"
       d="m 41.445946,285.98947 v 1.22236 H 100.7652 v -1.19473"
       style="fill:none;stroke:#000000;stroke-width:0.26499999;stroke-linecap:round;stroke-linejoin:round;stroke-miterlimit:4;stroke-dasharray:none;stroke-opacity:1" />
    <g
       id="flowRoot827"
       style="font-style:normal;font-variant:normal;font-weight:normal;font-stretch:normal;font-size:18.66666603px;line-height:1.25;font-family:'Gentium Plus';-inkscape-font-specification:'Gentium Plus';letter-spacing:0px;word-spacing:0px;fill:#000000;fill-opacity:1;stroke:none"
       transform="matrix(0.26458333,0,0,0.26458333,-2.7380272,258.46555)"
       aria-label="fraction (32 bit)">
      <path
         id="path994"
         style="font-style:normal;font-variant:normal;font-weight:normal;font-stretch:normal;font-family:'Open Sans';-inkscape-font-specification:'Open Sans';text-align:center;text-anchor:middle"
         d="m 224.59603,123.00117 h -2.54297 v 8.8138 h -1.51302 v -8.8138 h -1.78646 v -0.68359 l 1.78646,-0.54688 v -0.55599 q 0,-3.68229 3.21745,-3.68229 0.79297,0 1.85937,0.31901 l -0.39192,1.21224 q -0.875,-0.28255 -1.49479,-0.28255 -0.85678,0 -1.26693,0.57422 -0.41016,0.5651 -0.41016,1.82291 v 0.64714 h 2.54297 z" />
      <path
         id="path996"
         style="font-style:normal;font-variant:normal;font-weight:normal;font-stretch:normal;font-family:'Open Sans';-inkscape-font-specification:'Open Sans';text-align:center;text-anchor:middle"
         d="m 230.99447,121.6431 q 0.66536,0 1.19401,0.10937 l -0.20964,1.40365 q -0.61979,-0.13672 -1.09375,-0.13672 -1.21224,0 -2.07812,0.98437 -0.85677,0.98438 -0.85677,2.45183 v 5.35937 h -1.51302 v -9.98958 h 1.24869 l 0.17318,1.85026 h 0.0729 q 0.55599,-0.97526 1.33984,-1.50391 0.78386,-0.52864 1.72266,-0.52864 z" />
      <path
         id="path998"
         style="font-style:normal;font-variant:normal;font-weight:normal;font-stretch:normal;font-family:'Open Sans';-inkscape-font-specification:'Open Sans';text-align:center;text-anchor:middle"
         d="m 240.2002,131.81497 -0.30078,-1.42187 h -0.0729 q -0.7474,0.9388 -1.49479,1.27604 -0.73828,0.32812 -1.85026,0.32812 -1.48568,0 -2.33334,-0.76562 -0.83854,-0.76563 -0.83854,-2.17839 0,-3.02604 4.83985,-3.17187 l 1.69531,-0.0547 v -0.61979 q 0,-1.17578 -0.51042,-1.73177 -0.5013,-0.56511 -1.61328,-0.56511 -1.2487,0 -2.82552,0.76563 l -0.46484,-1.15755 q 0.73828,-0.40104 1.61328,-0.62891 0.88411,-0.22786 1.76823,-0.22786 1.78645,0 2.64322,0.79297 0.86589,0.79296 0.86589,2.54296 v 6.81771 z m -3.41797,-1.0664 q 1.41276,0 2.21484,-0.77474 0.8112,-0.77474 0.8112,-2.16927 v -0.90235 l -1.51302,0.0638 q -1.80469,0.0638 -2.60677,0.56511 -0.79297,0.49219 -0.79297,1.54036 0,0.82032 0.49219,1.2487 0.5013,0.42839 1.39453,0.42839 z" />
      <path
         id="path1000"
         style="font-style:normal;font-variant:normal;font-weight:normal;font-stretch:normal;font-family:'Open Sans';-inkscape-font-specification:'Open Sans';text-align:center;text-anchor:middle"
         d="m 248.43978,131.99726 q -2.16927,0 -3.36328,-1.33073 -1.1849,-1.33984 -1.1849,-3.78255 0,-2.50651 1.20313,-3.87369 1.21224,-1.36719 3.44531,-1.36719 0.72005,0 1.4401,0.15495 0.72006,0.15494 1.13021,0.36458 l -0.46484,1.28516 q -0.5013,-0.20053 -1.09375,-0.32813 -0.59245,-0.13672 -1.04818,-0.13672 -3.04427,0 -3.04427,3.88281 0,1.84115 0.73828,2.82552 0.7474,0.98438 2.20573,0.98438 1.2487,0 2.5612,-0.53776 v 1.33984 q -1.0026,0.51953 -2.52474,0.51953 z" />
      <path
         id="path1002"
         style="font-style:normal;font-variant:normal;font-weight:normal;font-stretch:normal;font-family:'Open Sans';-inkscape-font-specification:'Open Sans';text-align:center;text-anchor:middle"
         d="m 256.56999,130.74857 q 0.40104,0 0.77474,-0.0547 0.3737,-0.0638 0.59245,-0.12761 v 1.15756 q -0.2461,0.11849 -0.72917,0.1914 -0.47396,0.082 -0.85677,0.082 -2.89844,0 -2.89844,-3.05338 v -5.94271 h -1.43099 V 122.272 l 1.43099,-0.6289 0.63802,-2.13281 h 0.875 v 2.3151 h 2.89844 v 1.17578 h -2.89844 v 5.87891 q 0,0.90234 0.42839,1.38541 0.42838,0.48308 1.17578,0.48308 z" />
      <path
         id="path1004"
         style="font-style:normal;font-variant:normal;font-weight:normal;font-stretch:normal;font-family:'Open Sans';-inkscape-font-specification:'Open Sans';text-align:center;text-anchor:middle"
         d="m 261.4554,131.81497 h -1.51302 v -9.98958 h 1.51302 z m -1.64062,-12.69661 q 0,-0.51953 0.25521,-0.75651 0.25521,-0.2461 0.63802,-0.2461 0.36458,0 0.6289,0.2461 0.26433,0.24609 0.26433,0.75651 0,0.51041 -0.26433,0.76562 -0.26432,0.2461 -0.6289,0.2461 -0.38281,0 -0.63802,-0.2461 -0.25521,-0.25521 -0.25521,-0.76562 z" />
      <path
         id="path1006"
         style="font-style:normal;font-variant:normal;font-weight:normal;font-stretch:normal;font-family:'Open Sans';-inkscape-font-specification:'Open Sans';text-align:center;text-anchor:middle"
         d="m 273.30436,126.81107 q 0,2.4427 -1.23047,3.81901 -1.23047,1.36718 -3.39974,1.36718 -1.33984,0 -2.3789,-0.6289 -1.03907,-0.62891 -1.60417,-1.80469 -0.5651,-1.17578 -0.5651,-2.7526 0,-2.44271 1.22135,-3.80078 1.22135,-1.36719 3.39063,-1.36719 2.09635,0 3.32682,1.39453 1.23958,1.39453 1.23958,3.77344 z m -7.61068,0 q 0,1.91406 0.76563,2.91666 0.76562,1.00261 2.2513,1.00261 1.48568,0 2.2513,-0.99349 0.77474,-1.00261 0.77474,-2.92578 0,-1.90495 -0.77474,-2.88933 -0.76562,-0.99349 -2.26953,-0.99349 -1.48567,0 -2.24219,0.97526 -0.75651,0.97526 -0.75651,2.90756 z" />
      <path
         id="path1008"
         style="font-style:normal;font-variant:normal;font-weight:normal;font-stretch:normal;font-family:'Open Sans';-inkscape-font-specification:'Open Sans';text-align:center;text-anchor:middle"
         d="m 282.78353,131.81497 v -6.46224 q 0,-1.22135 -0.55599,-1.82291 -0.55599,-0.60157 -1.74089,-0.60157 -1.56771,0 -2.29687,0.84766 -0.72917,0.84766 -0.72917,2.79818 v 5.24088 h -1.51302 v -9.98958 h 1.23047 l 0.24609,1.36719 h 0.0729 q 0.46484,-0.73828 1.30339,-1.13933 0.83854,-0.41015 1.86848,-0.41015 1.80469,0 2.71615,0.875 0.91146,0.86588 0.91146,2.77995 v 6.51692 z" />
      <path
         id="path1010"
         style="font-style:normal;font-variant:normal;font-weight:normal;font-stretch:normal;font-family:'Open Sans';-inkscape-font-specification:'Open Sans';text-align:center;text-anchor:middle"
         d="m 291.38769,126.70169 q 0,-2.41536 0.70183,-4.52083 0.71094,-2.10547 2.04166,-3.69141 h 1.47657 q -1.3125,1.75912 -1.97787,3.86459 -0.65625,2.10546 -0.65625,4.32942 0,2.1875 0.67448,4.27474 0.67448,2.08724 1.94141,3.8099 h -1.45834 q -1.33984,-1.54948 -2.04166,-3.61849 -0.70183,-2.06901 -0.70183,-4.44792 z" />
      <path
         id="path1012"
         style="font-style:normal;font-variant:normal;font-weight:normal;font-stretch:normal;font-family:'Open Sans';-inkscape-font-specification:'Open Sans';text-align:center;text-anchor:middle"
         d="m 305.35123,121.62487 q 0,1.27604 -0.72005,2.08724 -0.71094,0.8112 -2.02344,1.08463 v 0.0729 q 1.60417,0.20052 2.37891,1.02083 0.77474,0.82032 0.77474,2.15105 0,1.90494 -1.32161,2.93489 -1.32162,1.02083 -3.75521,1.02083 -1.05729,0 -1.94141,-0.16406 -0.875,-0.15495 -1.70443,-0.55599 v -1.4401 q 0.86589,0.42838 1.84115,0.65625 0.98437,0.21875 1.85937,0.21875 3.45443,0 3.45443,-2.70703 0,-2.42448 -3.80989,-2.42448 h -1.3125 v -1.30339 h 1.33073 q 1.55859,0 2.47005,-0.68359 0.91146,-0.69271 0.91146,-1.91406 0,-0.97526 -0.67448,-1.53125 -0.66537,-0.55599 -1.81381,-0.55599 -0.875,0 -1.64974,0.23698 -0.77473,0.23697 -1.76822,0.875 l -0.76563,-1.02084 q 0.82031,-0.64713 1.88672,-1.01172 1.07552,-0.37369 2.26042,-0.37369 1.9414,0 3.01692,0.89322 1.07552,0.88412 1.07552,2.4336 z" />
      <path
         id="path1014"
         style="font-style:normal;font-variant:normal;font-weight:normal;font-stretch:normal;font-family:'Open Sans';-inkscape-font-specification:'Open Sans';text-align:center;text-anchor:middle"
         d="m 316.53483,131.81497 h -8.75911 v -1.30338 l 3.50911,-3.52735 q 1.60417,-1.62239 2.11459,-2.3151 0.51041,-0.69271 0.76562,-1.34896 0.25521,-0.65625 0.25521,-1.41276 0,-1.06641 -0.64714,-1.6862 -0.64713,-0.6289 -1.79557,-0.6289 -0.82943,0 -1.57682,0.27343 -0.73828,0.27344 -1.64974,0.99349 l -0.80208,-1.02994 q 1.84114,-1.53125 4.01041,-1.53125 1.87761,0 2.94401,0.96614 1.06641,0.95703 1.06641,2.57943 0,1.26693 -0.71094,2.50651 -0.71094,1.23958 -2.66146,3.13542 l -2.91666,2.85286 v 0.0729 h 6.85416 z" />
      <path
         id="path1016"
         style="font-style:normal;font-variant:normal;font-weight:normal;font-stretch:normal;font-family:'Open Sans';-inkscape-font-specification:'Open Sans';text-align:center;text-anchor:middle"
         d="m 328.64811,121.66133 q 1.96875,0 3.05339,1.34896 1.09375,1.33984 1.09375,3.80078 0,2.46093 -1.10287,3.82812 -1.09375,1.35807 -3.04427,1.35807 -0.97526,0 -1.78645,-0.35546 -0.80209,-0.36459 -1.34896,-1.11198 h -0.10938 l -0.31901,1.28515 h -1.08463 v -14.18229 h 1.51302 v 3.44531 q 0,1.15756 -0.0729,2.07813 h 0.0729 q 1.05729,-1.49479 3.13541,-1.49479 z m -0.21875,1.26692 q -1.54948,0 -2.23307,0.89323 -0.68359,0.88412 -0.68359,2.98959 0,2.10546 0.70182,3.01692 0.70182,0.90235 2.2513,0.90235 1.39453,0 2.07813,-1.01172 0.68359,-1.02084 0.68359,-2.92578 0,-1.95052 -0.68359,-2.90755 -0.6836,-0.95704 -2.11459,-0.95704 z" />
      <path
         id="path1018"
         style="font-style:normal;font-variant:normal;font-weight:normal;font-stretch:normal;font-family:'Open Sans';-inkscape-font-specification:'Open Sans';text-align:center;text-anchor:middle"
         d="m 336.96061,131.81497 h -1.51302 v -9.98958 h 1.51302 z m -1.64062,-12.69661 q 0,-0.51953 0.2552,-0.75651 0.25521,-0.2461 0.63803,-0.2461 0.36458,0 0.6289,0.2461 0.26432,0.24609 0.26432,0.75651 0,0.51041 -0.26432,0.76562 -0.26432,0.2461 -0.6289,0.2461 -0.38282,0 -0.63803,-0.2461 -0.2552,-0.25521 -0.2552,-0.76562 z" />
      <path
         id="path1020"
         style="font-style:normal;font-variant:normal;font-weight:normal;font-stretch:normal;font-family:'Open Sans';-inkscape-font-specification:'Open Sans';text-align:center;text-anchor:middle"
         d="m 343.41373,130.74857 q 0.40104,0 0.77474,-0.0547 0.3737,-0.0638 0.59245,-0.12761 v 1.15756 q -0.24609,0.11849 -0.72917,0.1914 -0.47396,0.082 -0.85677,0.082 -2.89844,0 -2.89844,-3.05338 v -5.94271 h -1.43099 V 122.272 l 1.43099,-0.6289 0.63802,-2.13281 h 0.875 v 2.3151 h 2.89844 v 1.17578 h -2.89844 v 5.87891 q 0,0.90234 0.42839,1.38541 0.42839,0.48308 1.17578,0.48308 z" />
      <path
         id="path1022"
         style="font-style:normal;font-variant:normal;font-weight:normal;font-stretch:normal;font-family:'Open Sans';-inkscape-font-specification:'Open Sans';text-align:center;text-anchor:middle"
         d="m 349.958,126.70169 q 0,2.39714 -0.71093,4.46615 -0.70183,2.06901 -2.03255,3.60026 h -1.45834 q 1.26693,-1.71354 1.94141,-3.80078 0.67448,-2.09636 0.67448,-4.28386 0,-2.22396 -0.66537,-4.32942 -0.65625,-2.10547 -1.96875,-3.86459 h 1.47657 q 1.33984,1.59505 2.04166,3.70964 0.70182,2.10547 0.70182,4.5026 z" />
    </g>
    <g
       id="flowRoot827-3"
       style="font-style:normal;font-variant:normal;font-weight:normal;font-stretch:normal;font-size:18.66666603px;line-height:1.25;font-family:'Gentium Plus';-inkscape-font-specification:'Gentium Plus';letter-spacing:0px;word-spacing:0px;fill:#000000;fill-opacity:1;stroke:none"
       transform="matrix(0.26458333,0,0,0.26458333,-48.446583,232.76058)"
       aria-label="exponent (8 bit)">
      <path
         id="path965"
         style="font-style:normal;font-variant:normal;font-weight:normal;font-stretch:normal;font-family:'Open Sans';-inkscape-font-specification:'Open Sans';text-align:center;text-anchor:middle"
         d="m 221.85254,131.99726 q -2.21484,0 -3.5,-1.34895 -1.27604,-1.34896 -1.27604,-3.7461 0,-2.41536 1.1849,-3.83724 1.19401,-1.42187 3.19921,-1.42187 1.87761,0 2.97136,1.23958 1.09375,1.23047 1.09375,3.25391 v 0.95703 h -6.88151 q 0.0456,1.75911 0.88411,2.67057 0.84766,0.91146 2.37891,0.91146 1.61328,0 3.1901,-0.67448 v 1.34896 q -0.80208,0.34635 -1.52213,0.49219 -0.71094,0.15494 -1.72266,0.15494 z m -0.41016,-9.08724 q -1.20312,0 -1.92317,0.78386 -0.71094,0.78385 -0.83854,2.16927 h 5.22265 q 0,-1.43099 -0.63802,-2.1875 -0.63802,-0.76563 -1.82292,-0.76563 z" />
      <path
         id="path967"
         style="font-style:normal;font-variant:normal;font-weight:normal;font-stretch:normal;font-family:'Open Sans';-inkscape-font-specification:'Open Sans';text-align:center;text-anchor:middle"
         d="m 230.50228,126.70169 -3.47266,-4.8763 h 1.72266 l 2.63411,3.82812 2.625,-3.82812 h 1.70443 l -3.47265,4.8763 3.65494,5.11328 h -1.71354 l -2.79818,-4.04687 -2.82552,4.04687 h -1.71354 z" />
      <path
         id="path969"
         style="font-style:normal;font-variant:normal;font-weight:normal;font-stretch:normal;font-family:'Open Sans';-inkscape-font-specification:'Open Sans';text-align:center;text-anchor:middle"
         d="m 242.5153,131.99726 q -0.97526,0 -1.78646,-0.35546 -0.80208,-0.36459 -1.34895,-1.11198 h -0.10938 q 0.10938,0.875 0.10938,1.65885 v 4.11068 h -1.51303 v -14.47396 h 1.23047 l 0.20964,1.36719 h 0.0729 q 0.58333,-0.82032 1.35807,-1.1849 0.77474,-0.36458 1.77734,-0.36458 1.98698,0 3.0625,1.35807 1.08464,1.35807 1.08464,3.8099 0,2.46093 -1.10287,3.82812 -1.09375,1.35807 -3.04427,1.35807 z m -0.21875,-9.06901 q -1.53125,0 -2.21484,0.84766 -0.6836,0.84766 -0.70182,2.69792 v 0.33724 q 0,2.10546 0.70182,3.01692 0.70182,0.90235 2.2513,0.90235 1.29427,0 2.02344,-1.04818 0.73828,-1.04818 0.73828,-2.88932 0,-1.86849 -0.73828,-2.86198 -0.72917,-1.00261 -2.0599,-1.00261 z" />
      <path
         id="path971"
         style="font-style:normal;font-variant:normal;font-weight:normal;font-stretch:normal;font-family:'Open Sans';-inkscape-font-specification:'Open Sans';text-align:center;text-anchor:middle"
         d="m 257.93717,126.81107 q 0,2.4427 -1.23046,3.81901 -1.23047,1.36718 -3.39974,1.36718 -1.33985,0 -2.37891,-0.6289 -1.03906,-0.62891 -1.60417,-1.80469 -0.5651,-1.17578 -0.5651,-2.7526 0,-2.44271 1.22135,-3.80078 1.22136,-1.36719 3.39063,-1.36719 2.09635,0 3.32682,1.39453 1.23958,1.39453 1.23958,3.77344 z m -7.61067,0 q 0,1.91406 0.76562,2.91666 0.76563,1.00261 2.2513,1.00261 1.48568,0 2.25131,-0.99349 0.77474,-1.00261 0.77474,-2.92578 0,-1.90495 -0.77474,-2.88933 -0.76563,-0.99349 -2.26954,-0.99349 -1.48567,0 -2.24218,0.97526 -0.75651,0.97526 -0.75651,2.90756 z" />
      <path
         id="path973"
         style="font-style:normal;font-variant:normal;font-weight:normal;font-stretch:normal;font-family:'Open Sans';-inkscape-font-specification:'Open Sans';text-align:center;text-anchor:middle"
         d="m 267.41634,131.81497 v -6.46224 q 0,-1.22135 -0.55599,-1.82291 -0.55599,-0.60157 -1.74088,-0.60157 -1.56771,0 -2.29688,0.84766 -0.72917,0.84766 -0.72917,2.79818 v 5.24088 h -1.51302 v -9.98958 h 1.23047 l 0.2461,1.36719 h 0.0729 q 0.46485,-0.73828 1.30339,-1.13933 0.83854,-0.41015 1.86849,-0.41015 1.80468,0 2.71614,0.875 0.91146,0.86588 0.91146,2.77995 v 6.51692 z" />
      <path
         id="path975"
         style="font-style:normal;font-variant:normal;font-weight:normal;font-stretch:normal;font-family:'Open Sans';-inkscape-font-specification:'Open Sans';text-align:center;text-anchor:middle"
         d="m 276.24837,131.99726 q -2.21484,0 -3.5,-1.34895 -1.27604,-1.34896 -1.27604,-3.7461 0,-2.41536 1.1849,-3.83724 1.19401,-1.42187 3.19922,-1.42187 1.8776,0 2.97135,1.23958 1.09375,1.23047 1.09375,3.25391 v 0.95703 h -6.88151 q 0.0456,1.75911 0.88411,2.67057 0.84766,0.91146 2.37891,0.91146 1.61328,0 3.1901,-0.67448 v 1.34896 q -0.80208,0.34635 -1.52213,0.49219 -0.71094,0.15494 -1.72266,0.15494 z m -0.41015,-9.08724 q -1.20313,0 -1.92318,0.78386 -0.71094,0.78385 -0.83854,2.16927 h 5.22265 q 0,-1.43099 -0.63802,-2.1875 -0.63802,-0.76563 -1.82291,-0.76563 z" />
      <path
         id="path977"
         style="font-style:normal;font-variant:normal;font-weight:normal;font-stretch:normal;font-family:'Open Sans';-inkscape-font-specification:'Open Sans';text-align:center;text-anchor:middle"
         d="m 289.3278,131.81497 v -6.46224 q 0,-1.22135 -0.55599,-1.82291 -0.55599,-0.60157 -1.74088,-0.60157 -1.56771,0 -2.29688,0.84766 -0.72916,0.84766 -0.72916,2.79818 v 5.24088 h -1.51303 v -9.98958 h 1.23047 l 0.2461,1.36719 h 0.0729 q 0.46485,-0.73828 1.30339,-1.13933 0.83854,-0.41015 1.86849,-0.41015 1.80469,0 2.71614,0.875 0.91146,0.86588 0.91146,2.77995 v 6.51692 z" />
      <path
         id="path979"
         style="font-style:normal;font-variant:normal;font-weight:normal;font-stretch:normal;font-family:'Open Sans';-inkscape-font-specification:'Open Sans';text-align:center;text-anchor:middle"
         d="m 297.16634,130.74857 q 0.40104,0 0.77474,-0.0547 0.3737,-0.0638 0.59245,-0.12761 v 1.15756 q -0.2461,0.11849 -0.72917,0.1914 -0.47396,0.082 -0.85677,0.082 -2.89844,0 -2.89844,-3.05338 v -5.94271 h -1.43099 V 122.272 l 1.43099,-0.6289 0.63802,-2.13281 h 0.875 v 2.3151 h 2.89844 v 1.17578 h -2.89844 v 5.87891 q 0,0.90234 0.42839,1.38541 0.42838,0.48308 1.17578,0.48308 z" />
      <path
         id="path981"
         style="font-style:normal;font-variant:normal;font-weight:normal;font-stretch:normal;font-family:'Open Sans';-inkscape-font-specification:'Open Sans';text-align:center;text-anchor:middle"
         d="m 304.53092,126.70169 q 0,-2.41536 0.70182,-4.52083 0.71094,-2.10547 2.04167,-3.69141 h 1.47656 q -1.3125,1.75912 -1.97786,3.86459 -0.65625,2.10546 -0.65625,4.32942 0,2.1875 0.67448,4.27474 0.67448,2.08724 1.9414,3.8099 h -1.45833 q -1.33984,-1.54948 -2.04167,-3.61849 -0.70182,-2.06901 -0.70182,-4.44792 z" />
      <path
         id="path983"
         style="font-style:normal;font-variant:normal;font-weight:normal;font-stretch:normal;font-family:'Open Sans';-inkscape-font-specification:'Open Sans';text-align:center;text-anchor:middle"
         d="m 314.64811,118.29805 q 1.82291,0 2.88932,0.84765 1.06641,0.84766 1.06641,2.34245 0,0.98437 -0.61068,1.79557 -0.61068,0.8112 -1.95052,1.47657 1.62239,0.77473 2.30599,1.63151 0.68359,0.84765 0.68359,1.96875 0,1.65885 -1.15755,2.65234 -1.15755,0.98437 -3.17188,0.98437 -2.13281,0 -3.28125,-0.92968 -1.14843,-0.93881 -1.14843,-2.65235 0,-2.28776 2.78906,-3.5638 -1.25781,-0.71094 -1.80469,-1.53125 -0.54687,-0.82943 -0.54687,-1.85026 0,-1.44922 1.0664,-2.30599 1.07552,-0.86588 2.8711,-0.86588 z m -2.88021,10.15364 q 0,1.09375 0.75651,1.70443 0.76562,0.61068 2.14193,0.61068 1.35807,0 2.11458,-0.63803 0.75651,-0.63802 0.75651,-1.75 0,-0.88411 -0.71094,-1.5677 -0.71094,-0.69271 -2.47916,-1.33985 -1.35808,0.58334 -1.96875,1.29427 -0.61068,0.70183 -0.61068,1.6862 z m 2.86198,-8.92318 q -1.13933,0 -1.78646,0.54688 -0.64714,0.54687 -0.64714,1.45833 0,0.83854 0.53776,1.44011 0.53776,0.60156 1.98698,1.20312 1.30339,-0.54687 1.84115,-1.17578 0.54687,-0.62891 0.54687,-1.46745 0,-0.92057 -0.66536,-1.45833 -0.65625,-0.54688 -1.8138,-0.54688 z" />
      <path
         id="path985"
         style="font-style:normal;font-variant:normal;font-weight:normal;font-stretch:normal;font-family:'Open Sans';-inkscape-font-specification:'Open Sans';text-align:center;text-anchor:middle"
         d="m 331.10904,121.66133 q 1.96875,0 3.05339,1.34896 1.09375,1.33984 1.09375,3.80078 0,2.46093 -1.10287,3.82812 -1.09375,1.35807 -3.04427,1.35807 -0.97526,0 -1.78645,-0.35546 -0.80209,-0.36459 -1.34896,-1.11198 h -0.10938 l -0.31901,1.28515 h -1.08463 v -14.18229 h 1.51302 v 3.44531 q 0,1.15756 -0.0729,2.07813 h 0.0729 q 1.05729,-1.49479 3.13541,-1.49479 z m -0.21875,1.26692 q -1.54948,0 -2.23307,0.89323 -0.68359,0.88412 -0.68359,2.98959 0,2.10546 0.70182,3.01692 0.70182,0.90235 2.2513,0.90235 1.39453,0 2.07813,-1.01172 0.68359,-1.02084 0.68359,-2.92578 0,-1.95052 -0.68359,-2.90755 -0.6836,-0.95704 -2.11459,-0.95704 z" />
      <path
         id="path987"
         style="font-style:normal;font-variant:normal;font-weight:normal;font-stretch:normal;font-family:'Open Sans';-inkscape-font-specification:'Open Sans';text-align:center;text-anchor:middle"
         d="m 339.42155,131.81497 h -1.51302 v -9.98958 h 1.51302 z m -1.64063,-12.69661 q 0,-0.51953 0.25521,-0.75651 0.25521,-0.2461 0.63802,-0.2461 0.36459,0 0.62891,0.2461 0.26432,0.24609 0.26432,0.75651 0,0.51041 -0.26432,0.76562 -0.26432,0.2461 -0.62891,0.2461 -0.38281,0 -0.63802,-0.2461 -0.25521,-0.25521 -0.25521,-0.76562 z" />
      <path
         id="path989"
         style="font-style:normal;font-variant:normal;font-weight:normal;font-stretch:normal;font-family:'Open Sans';-inkscape-font-specification:'Open Sans';text-align:center;text-anchor:middle"
         d="m 345.87467,130.74857 q 0.40104,0 0.77474,-0.0547 0.3737,-0.0638 0.59245,-0.12761 v 1.15756 q -0.2461,0.11849 -0.72917,0.1914 -0.47396,0.082 -0.85677,0.082 -2.89844,0 -2.89844,-3.05338 v -5.94271 h -1.43099 V 122.272 l 1.43099,-0.6289 0.63802,-2.13281 h 0.875 v 2.3151 h 2.89844 v 1.17578 h -2.89844 v 5.87891 q 0,0.90234 0.42839,1.38541 0.42838,0.48308 1.17578,0.48308 z" />
      <path
         id="path991"
         style="font-style:normal;font-variant:normal;font-weight:normal;font-stretch:normal;font-family:'Open Sans';-inkscape-font-specification:'Open Sans';text-align:center;text-anchor:middle"
         d="m 352.41894,126.70169 q 0,2.39714 -0.71094,4.46615 -0.70182,2.06901 -2.03255,3.60026 h -1.45833 q 1.26693,-1.71354 1.94141,-3.80078 0.67447,-2.09636 0.67447,-4.28386 0,-2.22396 -0.66536,-4.32942 -0.65625,-2.10547 -1.96875,-3.86459 h 1.47656 q 1.33985,1.59505 2.04167,3.70964 0.70182,2.10547 0.70182,4.5026 z" />
    </g>
    <g
       id="flowRoot827-3-3"
       style="font-style:normal;font-variant:normal;font-weight:normal;font-stretch:normal;font-size:18.66666603px;line-height:1.25;font-family:'Gentium Plus';-inkscape-font-specification:'Gentium Plus';letter-spacing:0px;word-spacing:0px;fill:#000000;fill-opacity:1;stroke:none"
       transform="matrix(0.26458333,0,0,0.26458333,-59.537751,258.06029)"
       aria-label="sign (1 bit)">
      <path
         id="path1025"
         style="font-style:normal;font-variant:normal;font-weight:normal;font-stretch:normal;font-family:'Open Sans';-inkscape-font-specification:'Open Sans';text-align:center;text-anchor:middle"
         d="m 247.86556,129.08971 q 0,1.39453 -1.03906,2.15104 -1.03906,0.75651 -2.91667,0.75651 -1.98698,0 -3.09896,-0.6289 v -1.40365 q 0.72006,0.36459 1.54037,0.57422 0.82943,0.20964 1.59505,0.20964 1.1849,0 1.82292,-0.3737 0.63802,-0.38281 0.63802,-1.15755 0,-0.58334 -0.51042,-0.99349 -0.5013,-0.41927 -1.96875,-0.98438 -1.39453,-0.51953 -1.98698,-0.90234 -0.58333,-0.39193 -0.875,-0.88412 -0.28255,-0.49218 -0.28255,-1.17578 0,-1.22135 0.99349,-1.92317 0.99349,-0.71094 2.72526,-0.71094 1.61328,0 3.15365,0.65625 l -0.53776,1.23047 q -1.50391,-0.6198 -2.72526,-0.6198 -1.07553,0 -1.6224,0.33724 -0.54688,0.33724 -0.54688,0.92969 0,0.40104 0.20053,0.6836 0.20963,0.28255 0.66536,0.53776 0.45573,0.2552 1.75,0.73828 1.77734,0.64713 2.39713,1.30338 0.62891,0.65625 0.62891,1.64974 z" />
      <path
         id="path1027"
         style="font-style:normal;font-variant:normal;font-weight:normal;font-stretch:normal;font-family:'Open Sans';-inkscape-font-specification:'Open Sans';text-align:center;text-anchor:middle"
         d="m 251.8304,131.81497 h -1.51302 v -9.98958 h 1.51302 z m -1.64062,-12.69661 q 0,-0.51953 0.25521,-0.75651 0.25521,-0.2461 0.63802,-0.2461 0.36458,0 0.62891,0.2461 0.26432,0.24609 0.26432,0.75651 0,0.51041 -0.26432,0.76562 -0.26433,0.2461 -0.62891,0.2461 -0.38281,0 -0.63802,-0.2461 -0.25521,-0.25521 -0.25521,-0.76562 z" />
      <path
         id="path1029"
         style="font-style:normal;font-variant:normal;font-weight:normal;font-stretch:normal;font-family:'Open Sans';-inkscape-font-specification:'Open Sans';text-align:center;text-anchor:middle"
         d="m 263.23275,121.82539 v 0.95703 l -1.85026,0.21875 q 0.25521,0.31901 0.45573,0.83854 0.20052,0.51042 0.20052,1.15755 0,1.46745 -1.00261,2.34245 -1.0026,0.875 -2.7526,0.875 -0.44662,0 -0.83854,-0.0729 -0.96615,0.51041 -0.96615,1.28515 0,0.41016 0.33724,0.61068 0.33724,0.1914 1.15755,0.1914 h 1.76823 q 1.6224,0 2.48828,0.6836 0.875,0.68359 0.875,1.98698 0,1.65885 -1.33073,2.52474 -1.33072,0.875 -3.88281,0.875 -1.95963,0 -3.02604,-0.72917 -1.05729,-0.72917 -1.05729,-2.0599 0,-0.91145 0.58333,-1.57682 0.58334,-0.66536 1.64063,-0.90234 -0.38282,-0.17318 -0.64714,-0.53776 -0.25521,-0.36459 -0.25521,-0.84766 0,-0.54687 0.29167,-0.95703 0.29167,-0.41016 0.92057,-0.79297 -0.77474,-0.31901 -1.26692,-1.08463 -0.48308,-0.76563 -0.48308,-1.75 0,-1.64063 0.98438,-2.52474 0.98437,-0.89323 2.78906,-0.89323 0.78385,0 1.41276,0.18229 z m -7.96615,11.66667 q 0,0.81119 0.6836,1.23046 0.68359,0.41928 1.95963,0.41928 1.90495,0 2.81641,-0.57422 0.92057,-0.56511 0.92057,-1.54037 0,-0.8112 -0.5013,-1.13021 -0.5013,-0.30989 -1.88672,-0.30989 h -1.8138 q -1.02995,0 -1.60417,0.49219 -0.57422,0.49218 -0.57422,1.41276 z m 0.82031,-8.46745 q 0,1.04818 0.59245,1.58594 0.59245,0.53776 1.64974,0.53776 2.21485,0 2.21485,-2.15105 0,-2.2513 -2.24219,-2.2513 -1.06641,0 -1.64063,0.57422 -0.57422,0.57422 -0.57422,1.70443 z" />
      <path
         id="path1031"
         style="font-style:normal;font-variant:normal;font-weight:normal;font-stretch:normal;font-family:'Open Sans';-inkscape-font-specification:'Open Sans';text-align:center;text-anchor:middle"
         d="m 272.1377,131.81497 v -6.46224 q 0,-1.22135 -0.55599,-1.82291 -0.55599,-0.60157 -1.74089,-0.60157 -1.56771,0 -2.29687,0.84766 -0.72917,0.84766 -0.72917,2.79818 v 5.24088 h -1.51302 v -9.98958 h 1.23047 l 0.24609,1.36719 h 0.0729 q 0.46484,-0.73828 1.30338,-1.13933 0.83854,-0.41015 1.86849,-0.41015 1.80469,0 2.71615,0.875 0.91146,0.86588 0.91146,2.77995 v 6.51692 z" />
      <path
         id="path1033"
         style="font-style:normal;font-variant:normal;font-weight:normal;font-stretch:normal;font-family:'Open Sans';-inkscape-font-specification:'Open Sans';text-align:center;text-anchor:middle"
         d="m 280.74186,126.70169 q 0,-2.41536 0.70183,-4.52083 0.71093,-2.10547 2.04166,-3.69141 h 1.47656 q -1.3125,1.75912 -1.97786,3.86459 -0.65625,2.10546 -0.65625,4.32942 0,2.1875 0.67448,4.27474 0.67448,2.08724 1.9414,3.8099 h -1.45833 q -1.33984,-1.54948 -2.04166,-3.61849 -0.70183,-2.06901 -0.70183,-4.44792 z" />
      <path
         id="path1035"
         style="font-style:normal;font-variant:normal;font-weight:normal;font-stretch:normal;font-family:'Open Sans';-inkscape-font-specification:'Open Sans';text-align:center;text-anchor:middle"
         d="m 292.05306,131.81497 h -1.47657 v -9.49739 q 0,-1.1849 0.0729,-2.24219 -0.1914,0.19141 -0.42838,0.40104 -0.23698,0.20964 -2.16927,1.77734 l -0.80209,-1.03906 3.52735,-2.72526 h 1.27604 z" />
      <path
         id="path1037"
         style="font-style:normal;font-variant:normal;font-weight:normal;font-stretch:normal;font-family:'Open Sans';-inkscape-font-specification:'Open Sans';text-align:center;text-anchor:middle"
         d="m 307.31998,121.66133 q 1.96875,0 3.05339,1.34896 1.09375,1.33984 1.09375,3.80078 0,2.46093 -1.10286,3.82812 -1.09375,1.35807 -3.04428,1.35807 -0.97526,0 -1.78645,-0.35546 -0.80209,-0.36459 -1.34896,-1.11198 h -0.10938 l -0.31901,1.28515 h -1.08463 v -14.18229 h 1.51302 v 3.44531 q 0,1.15756 -0.0729,2.07813 h 0.0729 q 1.05729,-1.49479 3.13541,-1.49479 z m -0.21875,1.26692 q -1.54947,0 -2.23307,0.89323 -0.68359,0.88412 -0.68359,2.98959 0,2.10546 0.70182,3.01692 0.70182,0.90235 2.2513,0.90235 1.39453,0 2.07813,-1.01172 0.68359,-1.02084 0.68359,-2.92578 0,-1.95052 -0.68359,-2.90755 -0.6836,-0.95704 -2.11459,-0.95704 z" />
      <path
         id="path1039"
         style="font-style:normal;font-variant:normal;font-weight:normal;font-stretch:normal;font-family:'Open Sans';-inkscape-font-specification:'Open Sans';text-align:center;text-anchor:middle"
         d="m 315.63249,131.81497 h -1.51302 v -9.98958 h 1.51302 z m -1.64063,-12.69661 q 0,-0.51953 0.25521,-0.75651 0.25521,-0.2461 0.63802,-0.2461 0.36458,0 0.62891,0.2461 0.26432,0.24609 0.26432,0.75651 0,0.51041 -0.26432,0.76562 -0.26433,0.2461 -0.62891,0.2461 -0.38281,0 -0.63802,-0.2461 -0.25521,-0.25521 -0.25521,-0.76562 z" />
      <path
         id="path1041"
         style="font-style:normal;font-variant:normal;font-weight:normal;font-stretch:normal;font-family:'Open Sans';-inkscape-font-specification:'Open Sans';text-align:center;text-anchor:middle"
         d="m 322.08561,130.74857 q 0.40104,0 0.77474,-0.0547 0.37369,-0.0638 0.59244,-0.12761 v 1.15756 q -0.24609,0.11849 -0.72916,0.1914 -0.47396,0.082 -0.85677,0.082 -2.89844,0 -2.89844,-3.05338 v -5.94271 h -1.43099 V 122.272 l 1.43099,-0.6289 0.63802,-2.13281 h 0.875 v 2.3151 h 2.89844 v 1.17578 h -2.89844 v 5.87891 q 0,0.90234 0.42838,1.38541 0.42839,0.48308 1.17579,0.48308 z" />
      <path
         id="path1043"
         style="font-style:normal;font-variant:normal;font-weight:normal;font-stretch:normal;font-family:'Open Sans';-inkscape-font-specification:'Open Sans';text-align:center;text-anchor:middle"
         d="m 328.62988,126.70169 q 0,2.39714 -0.71094,4.46615 -0.70182,2.06901 -2.03255,3.60026 h -1.45833 q 1.26692,-1.71354 1.9414,-3.80078 0.67448,-2.09636 0.67448,-4.28386 0,-2.22396 -0.66536,-4.32942 -0.65625,-2.10547 -1.96875,-3.86459 h 1.47656 q 1.33984,1.59505 2.04167,3.70964 0.70182,2.10547 0.70182,4.5026 z" />
    </g>
    <rect
       y="270.72021"
       x="5.7982545"
       height="13.376779"
       width="4.085422"
       id="rect925"
       style="opacity:1;vector-effect:none;fill:#ffff65;fill-opacity:1;stroke:none;stroke-width:0.26153418;stroke-linecap:round;stroke-linejoin:round;stroke-miterlimit:4;stroke-dasharray:none;stroke-dashoffset:0;stroke-opacity:1" />
  </g>
</svg>
