<?xml version="1.0" encoding="UTF-8" standalone="no"?>
<svg
   xmlns:dc="http://purl.org/dc/elements/1.1/"
   xmlns:cc="http://creativecommons.org/ns#"
   xmlns:rdf="http://www.w3.org/1999/02/22-rdf-syntax-ns#"
   xmlns:svg="http://www.w3.org/2000/svg"
   xmlns="http://www.w3.org/2000/svg"
   id="svg8"
   version="1.1"
   viewBox="0 0 105.83333 79.375002"
   height="300"
   width="400">
  <defs
     id="defs2" />
  <metadata
     id="metadata5">
    <rdf:RDF>
      <cc:Work
         rdf:about="">
        <dc:format>image/svg+xml</dc:format>
        <dc:type
           rdf:resource="http://purl.org/dc/dcmitype/StillImage" />
        <dc:title></dc:title>
      </cc:Work>
    </rdf:RDF>
  </metadata>
  <g
     transform="translate(0,-217.62498)"
     id="layer1">
    <path
       id="path815"
       d="M 83.148819,257.31247 A 30.232151,30.232151 0 0 1 52.916668,287.54462 30.232151,30.232151 0 0 1 22.684517,257.31247 30.232151,30.232151 0 0 1 52.916668,227.08032 30.232151,30.232151 0 0 1 83.148819,257.31247 Z"
       style="opacity:1;vector-effect:none;fill:none;fill-opacity:1;stroke:#000000;stroke-width:0.26458332;stroke-linecap:round;stroke-linejoin:round;stroke-miterlimit:4;stroke-dasharray:none;stroke-dashoffset:0;stroke-opacity:1" />
    <path
       id="path819"
       d="m 52.664079,229.15804 v -4.35709"
       style="fill:none;stroke:#000000;stroke-width:0.26458332px;stroke-linecap:round;stroke-linejoin:miter;stroke-opacity:1" />
    <path
       id="path819-3"
       d="m 52.66408,289.67253 v -4.35709"
       style="fill:none;stroke:#000000;stroke-width:0.26458332px;stroke-linecap:round;stroke-linejoin:miter;stroke-opacity:1" />
    <path
       id="path819-3-6"
       d="m 20.498577,257.31248 h 4.3571"
       style="fill:none;stroke:#000000;stroke-width:0.26458332px;stroke-linecap:round;stroke-linejoin:miter;stroke-opacity:1" />
    <path
       id="path819-3-6-7"
       d="m 80.918302,257.31248 h 4.3571"
       style="fill:none;stroke:#000000;stroke-width:0.26458332px;stroke-linecap:round;stroke-linejoin:miter;stroke-opacity:1" />
    <path
       id="path872"
       d="m 29.978744,234.53242 3.031027,3.03103"
       style="fill:none;stroke:#000000;stroke-width:0.26458332px;stroke-linecap:round;stroke-linejoin:miter;stroke-opacity:1" />
    <path
       id="path874"
       d="m 75.917735,233.9641 -3.457266,3.45727"
       style="fill:none;stroke:#000000;stroke-width:0.26458332px;stroke-linecap:round;stroke-linejoin:miter;stroke-opacity:1" />
    <path
       id="path876"
       d="m 72.79199,277.34567 2.865268,2.86527"
       style="fill:none;stroke:#000000;stroke-width:0.26458332px;stroke-linecap:round;stroke-linejoin:miter;stroke-opacity:1" />
    <path
       id="path878"
       d="m 29.836662,280.04517 3.054706,-3.0547"
       style="fill:none;stroke:#000000;stroke-width:0.26458332px;stroke-linecap:round;stroke-linejoin:miter;stroke-opacity:1" />
    <g
       id="flowRoot880"
       style="font-style:normal;font-variant:normal;font-weight:normal;font-stretch:normal;font-size:18.66666603px;line-height:1.25;font-family:'Gentium Plus';-inkscape-font-specification:'Gentium Plus';letter-spacing:0px;word-spacing:0px;fill:#000000;fill-opacity:1;stroke:none"
       transform="matrix(0.26458333,0,0,0.26458333,0,217.62498)" />
    <g
       id="text892"
       style="font-style:normal;font-variant:normal;font-weight:normal;font-stretch:normal;font-size:4.93888903px;line-height:1.25;font-family:'Gentium Plus';-inkscape-font-specification:'Gentium Plus';letter-spacing:0px;word-spacing:0px;fill:#000000;fill-opacity:1;stroke:none;stroke-width:0.26458332"
       aria-label="010 = 0002">
      <path
         id="path1070"
         style="font-style:normal;font-variant:normal;font-weight:normal;font-stretch:normal;font-family:'Open Sans';-inkscape-font-specification:'Open Sans';stroke-width:0.26458332"
         d="m 44.418251,221.60946 q 0,0.91398 -0.289388,1.36494 -0.286976,0.45097 -0.880222,0.45097 -0.569129,0 -0.865752,-0.46061 -0.296623,-0.46302 -0.296623,-1.3553 0,-0.92122 0.286977,-1.36736 0.286976,-0.44614 0.875398,-0.44614 0.573953,0 0.870576,0.46543 0.299034,0.46543 0.299034,1.34807 z m -1.926842,0 q 0,0.76929 0.180868,1.12138 0.180867,0.34967 0.576364,0.34967 0.40032,0 0.578776,-0.3545 0.180868,-0.35691 0.180868,-1.11655 0,-0.75965 -0.180868,-1.11173 -0.178456,-0.3545 -0.578776,-0.3545 -0.395497,0 -0.576364,0.34967 -0.180868,0.34727 -0.180868,1.11656 z" />
      <path
         id="path1072"
         style="font-size:64.99999762%;baseline-shift:sub"
         d="M 45.787418,224.36491 H 45.53348 v -1.63335 q 0,-0.20378 0.01254,-0.38561 -0.03292,0.0329 -0.07367,0.069 -0.04075,0.0361 -0.373069,0.30567 l -0.137942,-0.1787 0.60663,-0.46869 h 0.219452 z" />
      <path
         id="path1074"
         style="font-size:64.99999762%;baseline-shift:sub"
         d="m 48.179451,223.21592 q 0,0.59409 -0.188102,0.88722 -0.186535,0.29312 -0.572144,0.29312 -0.369934,0 -0.562739,-0.29939 -0.192805,-0.30097 -0.192805,-0.88095 0,-0.59879 0.186535,-0.88878 0.186534,-0.28999 0.569009,-0.28999 0.373069,0 0.565874,0.30253 0.194372,0.30253 0.194372,0.87624 z m -1.252447,0 q 0,0.50004 0.117564,0.7289 0.117564,0.22729 0.374637,0.22729 0.260208,0 0.376204,-0.23043 0.117564,-0.23199 0.117564,-0.72576 0,-0.49377 -0.117564,-0.72262 -0.115996,-0.23043 -0.376204,-0.23043 -0.257073,0 -0.374637,0.22729 -0.117564,0.22572 -0.117564,0.72576 z" />
      <path
         id="path1076"
         style="font-style:normal;font-variant:normal;font-weight:normal;font-stretch:normal;font-family:'Open Sans';-inkscape-font-specification:'Open Sans';stroke-width:0.26458332"
         d="m 49.910836,221.30801 v -0.33038 h 2.242757 v 0.33038 z m 0,0.98633 v -0.33038 h 2.242757 v 0.33038 z" />
      <path
         id="path1078"
         style="font-style:normal;font-variant:normal;font-weight:normal;font-stretch:normal;font-family:'Open Sans';-inkscape-font-specification:'Open Sans';stroke-width:0.26458332"
         d="m 56.311135,221.60946 q 0,0.91398 -0.289388,1.36494 -0.286977,0.45097 -0.880222,0.45097 -0.56913,0 -0.865753,-0.46061 -0.296623,-0.46302 -0.296623,-1.3553 0,-0.92122 0.286977,-1.36736 0.286976,-0.44614 0.875399,-0.44614 0.573953,0 0.870575,0.46543 0.299035,0.46543 0.299035,1.34807 z m -1.926842,0 q 0,0.76929 0.180867,1.12138 0.180868,0.34967 0.576365,0.34967 0.40032,0 0.578776,-0.3545 0.180867,-0.35691 0.180867,-1.11655 0,-0.75965 -0.180867,-1.11173 -0.178456,-0.3545 -0.578776,-0.3545 -0.395497,0 -0.576365,0.34967 -0.180867,0.34727 -0.180867,1.11656 z" />
      <path
         id="path1080"
         style="font-style:normal;font-variant:normal;font-weight:normal;font-stretch:normal;font-family:'Open Sans';-inkscape-font-specification:'Open Sans';stroke-width:0.26458332"
         d="m 59.137491,221.60946 q 0,0.91398 -0.289388,1.36494 -0.286976,0.45097 -0.880221,0.45097 -0.56913,0 -0.865753,-0.46061 -0.296623,-0.46302 -0.296623,-1.3553 0,-0.92122 0.286977,-1.36736 0.286976,-0.44614 0.875399,-0.44614 0.573952,0 0.870575,0.46543 0.299034,0.46543 0.299034,1.34807 z m -1.926841,0 q 0,0.76929 0.180867,1.12138 0.180868,0.34967 0.576365,0.34967 0.40032,0 0.578776,-0.3545 0.180867,-0.35691 0.180867,-1.11655 0,-0.75965 -0.180867,-1.11173 -0.178456,-0.3545 -0.578776,-0.3545 -0.395497,0 -0.576365,0.34967 -0.180867,0.34727 -0.180867,1.11656 z" />
      <path
         id="path1082"
         style="font-style:normal;font-variant:normal;font-weight:normal;font-stretch:normal;font-family:'Open Sans';-inkscape-font-specification:'Open Sans';stroke-width:0.26458332"
         d="m 61.963848,221.60946 q 0,0.91398 -0.289388,1.36494 -0.286976,0.45097 -0.880222,0.45097 -0.569129,0 -0.865752,-0.46061 -0.296623,-0.46302 -0.296623,-1.3553 0,-0.92122 0.286977,-1.36736 0.286976,-0.44614 0.875398,-0.44614 0.573953,0 0.870576,0.46543 0.299034,0.46543 0.299034,1.34807 z m -1.926842,0 q 0,0.76929 0.180868,1.12138 0.180867,0.34967 0.576364,0.34967 0.400321,0 0.578776,-0.3545 0.180868,-0.35691 0.180868,-1.11655 0,-0.75965 -0.180868,-1.11173 -0.178455,-0.3545 -0.578776,-0.3545 -0.395497,0 -0.576364,0.34967 -0.180868,0.34727 -0.180868,1.11656 z" />
      <path
         id="path1084"
         style="font-size:64.99999762%;baseline-shift:sub"
         d="M 63.875375,224.36491 H 62.36899 v -0.22415 l 0.603495,-0.60663 q 0.275883,-0.27902 0.363664,-0.39815 0.08778,-0.11913 0.131672,-0.23199 0.04389,-0.11286 0.04389,-0.24297 0,-0.1834 -0.111294,-0.28999 -0.111294,-0.10816 -0.308801,-0.10816 -0.142644,0 -0.271181,0.047 -0.126969,0.047 -0.28372,0.17086 l -0.137942,-0.17713 q 0.316639,-0.26335 0.689708,-0.26335 0.322909,0 0.506309,0.16616 0.183399,0.16459 0.183399,0.44361 0,0.21788 -0.122266,0.43107 -0.122267,0.21318 -0.457716,0.53922 l -0.501605,0.49064 v 0.0125 h 1.178773 z" />
    </g>
    <g
       id="text892-5"
       style="font-style:normal;font-variant:normal;font-weight:normal;font-stretch:normal;font-size:4.93888903px;line-height:1.25;font-family:'Gentium Plus';-inkscape-font-specification:'Gentium Plus';letter-spacing:0px;word-spacing:0px;fill:#000000;fill-opacity:1;stroke:none;stroke-width:0.26458332"
       aria-label="110 = 0012">
      <path
         id="path1087"
         style="font-style:normal;font-variant:normal;font-weight:normal;font-stretch:normal;font-family:'Open Sans';-inkscape-font-specification:'Open Sans';stroke-width:0.26458332"
         d="m 71.819989,230.36649 h -0.390674 v -2.51286 q 0,-0.3135 0.01929,-0.59324 -0.05064,0.0506 -0.113343,0.10611 -0.0627,0.0555 -0.573953,0.47025 l -0.212218,-0.27492 0.933276,-0.72106 h 0.33762 z" />
      <path
         id="path1089"
         style="font-size:3.2102778px;baseline-shift:sub;stroke-width:0.26458332"
         d="m 74.04285,231.35426 h -0.253937 v -1.63335 q 0,-0.20378 0.01254,-0.38561 -0.03292,0.0329 -0.07367,0.069 -0.04076,0.0361 -0.373069,0.30567 l -0.137942,-0.1787 0.60663,-0.46869 h 0.219452 z" />
      <path
         id="path1091"
         style="font-size:3.2102778px;baseline-shift:sub;stroke-width:0.26458332"
         d="m 76.434884,230.20527 q 0,0.59409 -0.188103,0.88722 -0.186534,0.29312 -0.572144,0.29312 -0.369934,0 -0.562739,-0.29939 -0.192805,-0.30097 -0.192805,-0.88095 0,-0.59879 0.186535,-0.88878 0.186535,-0.28999 0.569009,-0.28999 0.373069,0 0.565874,0.30253 0.194373,0.30253 0.194373,0.87624 z m -1.252448,0 q 0,0.50004 0.117564,0.7289 0.117564,0.22729 0.374637,0.22729 0.260208,0 0.376205,-0.23043 0.117563,-0.23199 0.117563,-0.72576 0,-0.49377 -0.117563,-0.72262 -0.115997,-0.23043 -0.376205,-0.23043 -0.257073,0 -0.374637,0.22729 -0.117564,0.22572 -0.117564,0.72576 z" />
      <path
         id="path1093"
         style="font-style:normal;font-variant:normal;font-weight:normal;font-stretch:normal;font-family:'Open Sans';-inkscape-font-specification:'Open Sans';stroke-width:0.26458332"
         d="m 78.166268,228.29736 v -0.33038 h 2.242757 v 0.33038 z m 0,0.98633 v -0.33038 h 2.242757 v 0.33038 z" />
      <path
         id="path1095"
         style="font-style:normal;font-variant:normal;font-weight:normal;font-stretch:normal;font-family:'Open Sans';-inkscape-font-specification:'Open Sans';stroke-width:0.26458332"
         d="m 84.566567,228.59881 q 0,0.91398 -0.289388,1.36494 -0.286977,0.45097 -0.880222,0.45097 -0.56913,0 -0.865753,-0.46061 -0.296622,-0.46302 -0.296622,-1.3553 0,-0.92122 0.286976,-1.36736 0.286976,-0.44614 0.875399,-0.44614 0.573953,0 0.870575,0.46543 0.299035,0.46543 0.299035,1.34807 z m -1.926842,0 q 0,0.76929 0.180867,1.12138 0.180868,0.34967 0.576365,0.34967 0.40032,0 0.578776,-0.3545 0.180867,-0.35691 0.180867,-1.11655 0,-0.75965 -0.180867,-1.11174 -0.178456,-0.3545 -0.578776,-0.3545 -0.395497,0 -0.576365,0.34968 -0.180867,0.34727 -0.180867,1.11656 z" />
      <path
         id="path1097"
         style="font-style:normal;font-variant:normal;font-weight:normal;font-stretch:normal;font-family:'Open Sans';-inkscape-font-specification:'Open Sans';stroke-width:0.26458332"
         d="m 87.392924,228.59881 q 0,0.91398 -0.289388,1.36494 -0.286977,0.45097 -0.880222,0.45097 -0.56913,0 -0.865753,-0.46061 -0.296623,-0.46302 -0.296623,-1.3553 0,-0.92122 0.286977,-1.36736 0.286976,-0.44614 0.875399,-0.44614 0.573953,0 0.870575,0.46543 0.299035,0.46543 0.299035,1.34807 z m -1.926842,0 q 0,0.76929 0.180867,1.12138 0.180868,0.34967 0.576365,0.34967 0.40032,0 0.578776,-0.3545 0.180867,-0.35691 0.180867,-1.11655 0,-0.75965 -0.180867,-1.11174 -0.178456,-0.3545 -0.578776,-0.3545 -0.395497,0 -0.576365,0.34968 -0.180867,0.34727 -0.180867,1.11656 z" />
      <path
         id="path1099"
         style="font-style:normal;font-variant:normal;font-weight:normal;font-stretch:normal;font-family:'Open Sans';-inkscape-font-specification:'Open Sans';stroke-width:0.26458332"
         d="m 89.365586,230.36649 h -0.390674 v -2.51286 q 0,-0.3135 0.01929,-0.59324 -0.05064,0.0506 -0.113343,0.10611 -0.0627,0.0555 -0.573953,0.47025 l -0.212218,-0.27492 0.933276,-0.72106 h 0.33762 z" />
      <path
         id="path1101"
         style="font-size:3.2102778px;baseline-shift:sub;stroke-width:0.26458332"
         d="m 92.130808,231.35426 h -1.506386 v -0.22415 l 0.603495,-0.60663 q 0.275883,-0.27902 0.363664,-0.39815 0.08778,-0.11913 0.131672,-0.23199 0.04389,-0.11287 0.04389,-0.24297 0,-0.1834 -0.111294,-0.28999 -0.111293,-0.10816 -0.308801,-0.10816 -0.142644,0 -0.27118,0.047 -0.126969,0.047 -0.283721,0.17086 l -0.137942,-0.17713 q 0.316639,-0.26335 0.689708,-0.26335 0.322909,0 0.506309,0.16616 0.183399,0.16459 0.183399,0.44361 0,0.21788 -0.122266,0.43107 -0.122267,0.21318 -0.457715,0.53922 l -0.501606,0.49064 v 0.0125 h 1.178774 z" />
    </g>
    <g
       id="text892-2"
       style="font-style:normal;font-variant:normal;font-weight:normal;font-stretch:normal;font-size:4.93888903px;line-height:1.25;font-family:'Gentium Plus';-inkscape-font-specification:'Gentium Plus';letter-spacing:0px;word-spacing:0px;fill:#000000;fill-opacity:1;stroke:none;stroke-width:0.26458332"
       aria-label="210 = 0102">
      <path
         id="path1104"
         style="font-style:normal;font-variant:normal;font-weight:normal;font-stretch:normal;font-family:'Open Sans';-inkscape-font-specification:'Open Sans';stroke-width:0.26458332"
         d="m 78.146494,255.01395 h -2.317515 v -0.34486 l 0.928453,-0.93327 q 0.424436,-0.42926 0.559483,-0.61254 0.135048,-0.18328 0.202572,-0.35691 0.06752,-0.17364 0.06752,-0.3738 0,-0.28215 -0.171221,-0.44614 -0.171222,-0.16639 -0.475079,-0.16639 -0.219453,0 -0.417201,0.0723 -0.195337,0.0724 -0.436494,0.26286 l -0.212218,-0.2725 q 0.487137,-0.40515 1.06109,-0.40515 0.496783,0 0.778936,0.25563 0.282153,0.25321 0.282153,0.68247 0,0.33521 -0.188102,0.66318 -0.188102,0.32798 -0.704177,0.82958 l -0.771702,0.75482 v 0.0193 h 1.813498 z" />
      <path
         id="path1106"
         style="font-size:3.2102778px;baseline-shift:sub;stroke-width:0.26458332"
         d="m 79.534954,256.00172 h -0.253938 v -1.63335 q 0,-0.20378 0.01254,-0.38561 -0.03292,0.0329 -0.07367,0.069 -0.04076,0.0361 -0.37307,0.30567 l -0.137941,-0.1787 0.606629,-0.46869 h 0.219453 z" />
      <path
         id="path1108"
         style="font-size:3.2102778px;baseline-shift:sub;stroke-width:0.26458332"
         d="m 81.926987,254.85273 q 0,0.59409 -0.188102,0.88722 -0.186535,0.29312 -0.572144,0.29312 -0.369935,0 -0.562739,-0.29939 -0.192805,-0.30096 -0.192805,-0.88095 0,-0.59879 0.186534,-0.88878 0.186535,-0.28999 0.56901,-0.28999 0.373069,0 0.565874,0.30253 0.194372,0.30253 0.194372,0.87624 z m -1.252447,0 q 0,0.50004 0.117564,0.7289 0.117564,0.22729 0.374637,0.22729 0.260208,0 0.376204,-0.23043 0.117564,-0.23199 0.117564,-0.72576 0,-0.49376 -0.117564,-0.72262 -0.115996,-0.23043 -0.376204,-0.23043 -0.257073,0 -0.374637,0.22729 -0.117564,0.22572 -0.117564,0.72576 z" />
      <path
         id="path1110"
         style="font-style:normal;font-variant:normal;font-weight:normal;font-stretch:normal;font-family:'Open Sans';-inkscape-font-specification:'Open Sans';stroke-width:0.26458332"
         d="m 83.658372,252.94482 v -0.33038 h 2.242757 v 0.33038 z m 0,0.98633 v -0.33038 h 2.242757 v 0.33038 z" />
      <path
         id="path1112"
         style="font-style:normal;font-variant:normal;font-weight:normal;font-stretch:normal;font-family:'Open Sans';-inkscape-font-specification:'Open Sans';stroke-width:0.26458332"
         d="m 90.05867,253.24627 q 0,0.91398 -0.289388,1.36494 -0.286976,0.45097 -0.880222,0.45097 -0.569129,0 -0.865752,-0.46061 -0.296623,-0.46302 -0.296623,-1.3553 0,-0.92122 0.286977,-1.36736 0.286976,-0.44614 0.875398,-0.44614 0.573953,0 0.870576,0.46543 0.299034,0.46543 0.299034,1.34807 z m -1.926842,0 q 0,0.76929 0.180868,1.12138 0.180867,0.34967 0.576364,0.34967 0.40032,0 0.578776,-0.3545 0.180868,-0.35691 0.180868,-1.11655 0,-0.75965 -0.180868,-1.11173 -0.178456,-0.3545 -0.578776,-0.3545 -0.395497,0 -0.576364,0.34967 -0.180868,0.34727 -0.180868,1.11656 z" />
      <path
         id="path1114"
         style="font-style:normal;font-variant:normal;font-weight:normal;font-stretch:normal;font-family:'Open Sans';-inkscape-font-specification:'Open Sans';stroke-width:0.26458332"
         d="m 92.031332,255.01395 h -0.390673 v -2.51286 q 0,-0.3135 0.01929,-0.59324 -0.05064,0.0506 -0.113343,0.10611 -0.0627,0.0555 -0.573953,0.47025 l -0.212218,-0.27492 0.933276,-0.72105 h 0.337619 z" />
      <path
         id="path1116"
         style="font-style:normal;font-variant:normal;font-weight:normal;font-stretch:normal;font-family:'Open Sans';-inkscape-font-specification:'Open Sans';stroke-width:0.26458332"
         d="m 95.711384,253.24627 q 0,0.91398 -0.289388,1.36494 -0.286976,0.45097 -0.880222,0.45097 -0.56913,0 -0.865752,-0.46061 -0.296623,-0.46302 -0.296623,-1.3553 0,-0.92122 0.286976,-1.36736 0.286977,-0.44614 0.875399,-0.44614 0.573953,0 0.870576,0.46543 0.299034,0.46543 0.299034,1.34807 z m -1.926842,0 q 0,0.76929 0.180868,1.12138 0.180867,0.34967 0.576364,0.34967 0.40032,0 0.578776,-0.3545 0.180868,-0.35691 0.180868,-1.11655 0,-0.75965 -0.180868,-1.11173 -0.178456,-0.3545 -0.578776,-0.3545 -0.395497,0 -0.576364,0.34967 -0.180868,0.34727 -0.180868,1.11656 z" />
      <path
         id="path1118"
         style="font-size:3.2102778px;baseline-shift:sub;stroke-width:0.26458332"
         d="m 97.622911,256.00172 h -1.506385 v -0.22415 l 0.603494,-0.60663 q 0.275884,-0.27902 0.363665,-0.39815 0.08778,-0.11913 0.131671,-0.23199 0.04389,-0.11286 0.04389,-0.24297 0,-0.1834 -0.111294,-0.28999 -0.111294,-0.10816 -0.308801,-0.10816 -0.142644,0 -0.271181,0.047 -0.126969,0.047 -0.283721,0.17086 l -0.137941,-0.17713 q 0.316638,-0.26335 0.689708,-0.26335 0.322909,0 0.506308,0.16616 0.1834,0.16459 0.1834,0.44361 0,0.21788 -0.122266,0.43107 -0.122267,0.21318 -0.457716,0.53922 l -0.501606,0.49064 v 0.0125 h 1.178774 z" />
    </g>
    <g
       id="text892-7"
       style="font-style:normal;font-variant:normal;font-weight:normal;font-stretch:normal;font-size:4.93888903px;line-height:1.25;font-family:'Gentium Plus';-inkscape-font-specification:'Gentium Plus';letter-spacing:0px;word-spacing:0px;fill:#000000;fill-opacity:1;stroke:none;stroke-width:0.26458332"
       aria-label="310 = 0112">
      <path
         id="path1121"
         style="font-style:normal;font-variant:normal;font-weight:normal;font-stretch:normal;font-family:'Open Sans';-inkscape-font-specification:'Open Sans';stroke-width:0.26458332"
         d="m 70.110591,271.8751 q 0,0.33762 -0.190513,0.55225 -0.188103,0.21462 -0.535368,0.28697 v 0.0193 q 0.424435,0.0531 0.629419,0.2701 0.204983,0.21704 0.204983,0.56913 0,0.50402 -0.349677,0.77652 -0.349678,0.2701 -0.993566,0.2701 -0.279742,0 -0.513664,-0.0434 -0.23151,-0.041 -0.450963,-0.1471 v -0.38103 q 0.229099,0.11334 0.487137,0.17363 0.260449,0.0579 0.49196,0.0579 0.913983,0 0.913983,-0.71624 0,-0.64147 -1.008035,-0.64147 h -0.347265 v -0.34486 h 0.352089 q 0.412377,0 0.653534,-0.18087 0.241157,-0.18327 0.241157,-0.50642 0,-0.25804 -0.178456,-0.40515 -0.176044,-0.1471 -0.479902,-0.1471 -0.23151,0 -0.436494,0.0627 -0.204983,0.0627 -0.467844,0.23151 l -0.202571,-0.2701 q 0.217041,-0.17122 0.499194,-0.26768 0.284565,-0.0989 0.598069,-0.0989 0.513664,0 0.798228,0.23634 0.284565,0.23392 0.284565,0.64389 z" />
      <path
         id="path1123"
         style="font-size:3.2102778px;baseline-shift:sub;stroke-width:0.26458332"
         d="m 71.631687,275.55901 h -0.253938 v -1.63336 q 0,-0.20378 0.01254,-0.38561 -0.03292,0.0329 -0.07367,0.069 -0.04076,0.0361 -0.373069,0.30567 l -0.137942,-0.1787 0.60663,-0.46869 h 0.219452 z" />
      <path
         id="path1125"
         style="font-size:3.2102778px;baseline-shift:sub;stroke-width:0.26458332"
         d="m 74.02372,274.41001 q 0,0.59409 -0.188102,0.88722 -0.186535,0.29313 -0.572144,0.29313 -0.369935,0 -0.562739,-0.2994 -0.192805,-0.30096 -0.192805,-0.88095 0,-0.59879 0.186535,-0.88878 0.186534,-0.28999 0.569009,-0.28999 0.373069,0 0.565874,0.30253 0.194372,0.30253 0.194372,0.87624 z m -1.252447,0 q 0,0.50004 0.117564,0.7289 0.117564,0.22729 0.374637,0.22729 0.260208,0 0.376204,-0.23042 0.117564,-0.232 0.117564,-0.72577 0,-0.49376 -0.117564,-0.72262 -0.115996,-0.23043 -0.376204,-0.23043 -0.257073,0 -0.374637,0.22729 -0.117564,0.22573 -0.117564,0.72576 z" />
      <path
         id="path1127"
         style="font-style:normal;font-variant:normal;font-weight:normal;font-stretch:normal;font-family:'Open Sans';-inkscape-font-specification:'Open Sans';stroke-width:0.26458332"
         d="m 75.755105,272.5021 v -0.33038 h 2.242757 v 0.33038 z m 0,0.98633 v -0.33038 h 2.242757 v 0.33038 z" />
      <path
         id="path1129"
         style="font-style:normal;font-variant:normal;font-weight:normal;font-stretch:normal;font-family:'Open Sans';-inkscape-font-specification:'Open Sans';stroke-width:0.26458332"
         d="m 82.155403,272.80355 q 0,0.91398 -0.289388,1.36495 -0.286976,0.45096 -0.880222,0.45096 -0.569129,0 -0.865752,-0.46061 -0.296623,-0.46302 -0.296623,-1.3553 0,-0.92122 0.286977,-1.36736 0.286976,-0.44614 0.875398,-0.44614 0.573953,0 0.870576,0.46543 0.299034,0.46544 0.299034,1.34807 z m -1.926842,0 q 0,0.76929 0.180868,1.12138 0.180867,0.34968 0.576364,0.34968 0.400321,0 0.578776,-0.35451 0.180868,-0.35691 0.180868,-1.11655 0,-0.75964 -0.180868,-1.11173 -0.178455,-0.3545 -0.578776,-0.3545 -0.395497,0 -0.576364,0.34967 -0.180868,0.34727 -0.180868,1.11656 z" />
      <path
         id="path1131"
         style="font-style:normal;font-variant:normal;font-weight:normal;font-stretch:normal;font-family:'Open Sans';-inkscape-font-specification:'Open Sans';stroke-width:0.26458332"
         d="m 84.128066,274.57123 h -0.390674 v -2.51285 q 0,-0.31351 0.01929,-0.59325 -0.05064,0.0506 -0.113343,0.10611 -0.0627,0.0555 -0.573953,0.47025 l -0.212218,-0.27491 0.933276,-0.72106 h 0.33762 z" />
      <path
         id="path1133"
         style="font-style:normal;font-variant:normal;font-weight:normal;font-stretch:normal;font-family:'Open Sans';-inkscape-font-specification:'Open Sans';stroke-width:0.26458332"
         d="m 86.954422,274.57123 h -0.390673 v -2.51285 q 0,-0.31351 0.01929,-0.59325 -0.05064,0.0506 -0.113343,0.10611 -0.0627,0.0555 -0.573953,0.47025 l -0.212218,-0.27491 0.933276,-0.72106 h 0.337619 z" />
      <path
         id="path1135"
         style="font-size:3.2102778px;baseline-shift:sub;stroke-width:0.26458332"
         d="m 89.719644,275.55901 h -1.506385 v -0.22416 l 0.603495,-0.60663 q 0.275883,-0.27902 0.363664,-0.39815 0.08778,-0.11913 0.131671,-0.23199 0.04389,-0.11286 0.04389,-0.24297 0,-0.1834 -0.111294,-0.28999 -0.111294,-0.10816 -0.308801,-0.10816 -0.142644,0 -0.271181,0.047 -0.126969,0.047 -0.283721,0.17086 l -0.137941,-0.17713 q 0.316639,-0.26334 0.689708,-0.26334 0.322909,0 0.506308,0.16615 0.1834,0.16459 0.1834,0.44361 0,0.21789 -0.122266,0.43107 -0.122267,0.21318 -0.457716,0.53922 l -0.501606,0.49064 v 0.0125 h 1.178774 z" />
    </g>
    <g
       id="text892-6"
       style="font-style:normal;font-variant:normal;font-weight:normal;font-stretch:normal;font-size:4.93888903px;line-height:1.25;font-family:'Gentium Plus';-inkscape-font-specification:'Gentium Plus';letter-spacing:0px;word-spacing:0px;fill:#000000;fill-opacity:1;stroke:none;stroke-width:0.26458332"
       aria-label="-410 = 1002">
      <path
         id="path1138"
         style="font-style:normal;font-variant:normal;font-weight:normal;font-stretch:normal;font-family:'Open Sans';-inkscape-font-specification:'Open Sans';stroke-width:0.26458332"
         d="m 41.900104,293.12172 v -0.36656 h 1.18408 v 0.36656 z" />
      <path
         id="path1140"
         style="font-style:normal;font-variant:normal;font-weight:normal;font-stretch:normal;font-family:'Open Sans';-inkscape-font-specification:'Open Sans';stroke-width:0.26458332"
         d="m 46.014237,293.4521 h -0.52331 v 0.81029 h -0.383439 v -0.81029 h -1.714624 v -0.34967 l 1.673628,-2.38504 h 0.424435 v 2.37057 h 0.52331 z m -0.906749,-0.36414 v -1.17202 q 0,-0.34486 0.02412,-0.77894 h -0.01929 q -0.115755,0.23151 -0.217041,0.38344 l -1.102086,1.56752 z" />
      <path
         id="path1142"
         style="font-size:3.2102778px;baseline-shift:sub;stroke-width:0.26458332"
         d="m 47.236299,295.25017 h -0.253938 v -1.63336 q 0,-0.20377 0.01254,-0.38561 -0.03292,0.0329 -0.07367,0.069 -0.04076,0.036 -0.37307,0.30566 l -0.137941,-0.1787 0.606629,-0.46868 h 0.219453 z" />
      <path
         id="path1144"
         style="font-size:3.2102778px;baseline-shift:sub;stroke-width:0.26458332"
         d="m 49.628332,294.10118 q 0,0.59409 -0.188102,0.88721 -0.186535,0.29313 -0.572144,0.29313 -0.369935,0 -0.56274,-0.2994 -0.192804,-0.30096 -0.192804,-0.88094 0,-0.5988 0.186534,-0.88879 0.186535,-0.28999 0.56901,-0.28999 0.373069,0 0.565874,0.30253 0.194372,0.30254 0.194372,0.87625 z m -1.252447,0 q 0,0.50004 0.117564,0.72889 0.117564,0.22729 0.374637,0.22729 0.260208,0 0.376204,-0.23042 0.117564,-0.23199 0.117564,-0.72576 0,-0.49377 -0.117564,-0.72263 -0.115996,-0.23042 -0.376204,-0.23042 -0.257073,0 -0.374637,0.22729 -0.117564,0.22572 -0.117564,0.72576 z" />
      <path
         id="path1146"
         style="font-style:normal;font-variant:normal;font-weight:normal;font-stretch:normal;font-family:'Open Sans';-inkscape-font-specification:'Open Sans';stroke-width:0.26458332"
         d="m 51.359717,292.19327 v -0.33039 h 2.242757 v 0.33039 z m 0,0.98633 v -0.33039 h 2.242757 v 0.33039 z" />
      <path
         id="path1148"
         style="font-style:normal;font-variant:normal;font-weight:normal;font-stretch:normal;font-family:'Open Sans';-inkscape-font-specification:'Open Sans';stroke-width:0.26458332"
         d="m 56.90632,294.26239 h -0.390674 v -2.51285 q 0,-0.31351 0.01929,-0.59325 -0.05064,0.0506 -0.113344,0.10611 -0.0627,0.0555 -0.573953,0.47026 l -0.212218,-0.27492 0.933277,-0.72106 h 0.337619 z" />
      <path
         id="path1150"
         style="font-style:normal;font-variant:normal;font-weight:normal;font-stretch:normal;font-family:'Open Sans';-inkscape-font-specification:'Open Sans';stroke-width:0.26458332"
         d="m 60.586371,292.49471 q 0,0.91399 -0.289388,1.36495 -0.286977,0.45096 -0.880222,0.45096 -0.56913,0 -0.865753,-0.46061 -0.296622,-0.46302 -0.296622,-1.3553 0,-0.92122 0.286976,-1.36736 0.286976,-0.44614 0.875399,-0.44614 0.573953,0 0.870575,0.46544 0.299035,0.46543 0.299035,1.34806 z m -1.926842,0 q 0,0.76929 0.180867,1.12138 0.180868,0.34968 0.576365,0.34968 0.40032,0 0.578776,-0.3545 0.180867,-0.35691 0.180867,-1.11656 0,-0.75964 -0.180867,-1.11173 -0.178456,-0.3545 -0.578776,-0.3545 -0.395497,0 -0.576365,0.34968 -0.180867,0.34726 -0.180867,1.11655 z" />
      <path
         id="path1152"
         style="font-style:normal;font-variant:normal;font-weight:normal;font-stretch:normal;font-family:'Open Sans';-inkscape-font-specification:'Open Sans';stroke-width:0.26458332"
         d="m 63.412728,292.49471 q 0,0.91399 -0.289388,1.36495 -0.286977,0.45096 -0.880222,0.45096 -0.56913,0 -0.865753,-0.46061 -0.296623,-0.46302 -0.296623,-1.3553 0,-0.92122 0.286977,-1.36736 0.286976,-0.44614 0.875399,-0.44614 0.573953,0 0.870575,0.46544 0.299035,0.46543 0.299035,1.34806 z m -1.926842,0 q 0,0.76929 0.180867,1.12138 0.180868,0.34968 0.576365,0.34968 0.40032,0 0.578776,-0.3545 0.180867,-0.35691 0.180867,-1.11656 0,-0.75964 -0.180867,-1.11173 -0.178456,-0.3545 -0.578776,-0.3545 -0.395497,0 -0.576365,0.34968 -0.180867,0.34726 -0.180867,1.11655 z" />
      <path
         id="path1154"
         style="font-size:3.2102778px;baseline-shift:sub;stroke-width:0.26458332"
         d="m 65.324257,295.25017 h -1.506386 v -0.22416 l 0.603495,-0.60663 q 0.275883,-0.27902 0.363664,-0.39815 0.08778,-0.11913 0.131672,-0.23199 0.04389,-0.11286 0.04389,-0.24296 0,-0.1834 -0.111294,-0.29 -0.111293,-0.10815 -0.308801,-0.10815 -0.142644,0 -0.27118,0.047 -0.126969,0.047 -0.283721,0.17086 l -0.137942,-0.17713 q 0.316639,-0.26334 0.689708,-0.26334 0.322909,0 0.506309,0.16616 0.183399,0.16458 0.183399,0.4436 0,0.21789 -0.122266,0.43107 -0.122266,0.21318 -0.457715,0.53923 l -0.501606,0.49063 v 0.0125 h 1.178774 z" />
    </g>
    <g
       id="text892-6-8"
       style="font-style:normal;font-variant:normal;font-weight:normal;font-stretch:normal;font-size:4.93888903px;line-height:1.25;font-family:'Gentium Plus';-inkscape-font-specification:'Gentium Plus';letter-spacing:0px;word-spacing:0px;fill:#000000;fill-opacity:1;stroke:none;stroke-width:0.26458332"
       aria-label="-110 = 1112">
      <path
         id="path1157"
         style="font-style:normal;font-variant:normal;font-weight:normal;font-stretch:normal;font-family:'Open Sans';-inkscape-font-specification:'Open Sans';stroke-width:0.26458332"
         d="m 9.155091,229.35976 v -0.36656 h 1.184079 v 0.36656 z" />
      <path
         id="path1159"
         style="font-style:normal;font-variant:normal;font-weight:normal;font-stretch:normal;font-family:'Open Sans';-inkscape-font-specification:'Open Sans';stroke-width:0.26458332"
         d="M 12.268424,230.50043 H 11.87775 v -2.51286 q 0,-0.3135 0.01929,-0.59324 -0.05064,0.0506 -0.113344,0.10611 -0.0627,0.0555 -0.573953,0.47025 l -0.212218,-0.27492 0.933277,-0.72105 h 0.337619 z" />
      <path
         id="path1161"
         style="font-size:3.2102778px;baseline-shift:sub;stroke-width:0.26458332"
         d="m 14.491286,231.48821 h -0.253938 v -1.63336 q 0,-0.20378 0.01254,-0.38561 -0.03292,0.0329 -0.07367,0.069 -0.04076,0.0361 -0.37307,0.30567 l -0.137941,-0.1787 0.606629,-0.46869 h 0.219453 z" />
      <path
         id="path1163"
         style="font-size:3.2102778px;baseline-shift:sub;stroke-width:0.26458332"
         d="m 16.883319,230.33921 q 0,0.59409 -0.188102,0.88722 -0.186535,0.29313 -0.572145,0.29313 -0.369934,0 -0.562739,-0.2994 -0.192805,-0.30096 -0.192805,-0.88095 0,-0.59879 0.186535,-0.88878 0.186535,-0.28999 0.569009,-0.28999 0.37307,0 0.565875,0.30253 0.194372,0.30253 0.194372,0.87624 z m -1.252447,0 q 0,0.50004 0.117563,0.7289 0.117564,0.22729 0.374637,0.22729 0.260208,0 0.376205,-0.23042 0.117564,-0.232 0.117564,-0.72577 0,-0.49376 -0.117564,-0.72262 -0.115997,-0.23043 -0.376205,-0.23043 -0.257073,0 -0.374637,0.22729 -0.117563,0.22573 -0.117563,0.72576 z" />
      <path
         id="path1165"
         style="font-style:normal;font-variant:normal;font-weight:normal;font-stretch:normal;font-family:'Open Sans';-inkscape-font-specification:'Open Sans';stroke-width:0.26458332"
         d="m 18.614704,228.4313 v -0.33038 h 2.242757 v 0.33038 z m 0,0.98633 v -0.33038 h 2.242757 v 0.33038 z" />
      <path
         id="path1167"
         style="font-style:normal;font-variant:normal;font-weight:normal;font-stretch:normal;font-family:'Open Sans';-inkscape-font-specification:'Open Sans';stroke-width:0.26458332"
         d="m 24.161307,230.50043 h -0.390674 v -2.51286 q 0,-0.3135 0.01929,-0.59324 -0.05064,0.0506 -0.113344,0.10611 -0.0627,0.0555 -0.573953,0.47025 l -0.212218,-0.27492 0.933276,-0.72105 h 0.33762 z" />
      <path
         id="path1169"
         style="font-style:normal;font-variant:normal;font-weight:normal;font-stretch:normal;font-family:'Open Sans';-inkscape-font-specification:'Open Sans';stroke-width:0.26458332"
         d="m 26.987663,230.50043 h -0.390674 v -2.51286 q 0,-0.3135 0.01929,-0.59324 -0.05064,0.0506 -0.113343,0.10611 -0.0627,0.0555 -0.573953,0.47025 l -0.212218,-0.27492 0.933276,-0.72105 h 0.33762 z" />
      <path
         id="path1171"
         style="font-style:normal;font-variant:normal;font-weight:normal;font-stretch:normal;font-family:'Open Sans';-inkscape-font-specification:'Open Sans';stroke-width:0.26458332"
         d="m 29.81402,230.50043 h -0.390674 v -2.51286 q 0,-0.3135 0.01929,-0.59324 -0.05064,0.0506 -0.113343,0.10611 -0.0627,0.0555 -0.573953,0.47025 l -0.212218,-0.27492 0.933276,-0.72105 h 0.33762 z" />
      <path
         id="path1173"
         style="font-size:3.2102778px;baseline-shift:sub;stroke-width:0.26458332"
         d="m 32.579243,231.48821 h -1.506385 v -0.22416 l 0.603495,-0.60663 q 0.275883,-0.27902 0.363664,-0.39815 0.08778,-0.11913 0.131672,-0.23199 0.04389,-0.11286 0.04389,-0.24297 0,-0.1834 -0.111294,-0.28999 -0.111294,-0.10816 -0.308801,-0.10816 -0.142644,0 -0.271181,0.047 -0.126969,0.047 -0.28372,0.17086 l -0.137942,-0.17713 q 0.316639,-0.26334 0.689708,-0.26334 0.322909,0 0.506309,0.16615 0.183399,0.16459 0.183399,0.44361 0,0.21788 -0.122266,0.43107 -0.122267,0.21318 -0.457716,0.53922 l -0.501606,0.49064 v 0.0125 h 1.178774 z" />
    </g>
    <g
       id="text892-6-8-0"
       style="font-style:normal;font-variant:normal;font-weight:normal;font-stretch:normal;font-size:4.93888903px;line-height:1.25;font-family:'Gentium Plus';-inkscape-font-specification:'Gentium Plus';letter-spacing:0px;word-spacing:0px;fill:#000000;fill-opacity:1;stroke:none;stroke-width:0.26458332"
       aria-label="-210 = 1102">
      <path
         id="path1176"
         style="font-style:normal;font-variant:normal;font-weight:normal;font-stretch:normal;font-family:'Open Sans';-inkscape-font-specification:'Open Sans';stroke-width:0.26458332"
         d="m 9.720516,254.24742 v -0.36656 h 1.184079 v 0.36656 z" />
      <path
         id="path1178"
         style="font-style:normal;font-variant:normal;font-weight:normal;font-stretch:normal;font-family:'Open Sans';-inkscape-font-specification:'Open Sans';stroke-width:0.26458332"
         d="m 13.668251,255.38809 h -2.317516 v -0.34485 l 0.928453,-0.93328 q 0.424436,-0.42926 0.559484,-0.61254 0.135048,-0.18328 0.202572,-0.35691 0.06752,-0.17363 0.06752,-0.37379 0,-0.28215 -0.171221,-0.44614 -0.171221,-0.1664 -0.475078,-0.1664 -0.219453,0 -0.417202,0.0724 -0.195336,0.0723 -0.436493,0.26286 l -0.212218,-0.27251 q 0.487136,-0.40514 1.061089,-0.40514 0.496783,0 0.778937,0.25562 0.282153,0.25322 0.282153,0.68248 0,0.33521 -0.188102,0.66318 -0.188103,0.32797 -0.704178,0.82958 l -0.771701,0.75482 v 0.0193 h 1.813498 z" />
      <path
         id="path1180"
         style="font-size:3.2102778px;baseline-shift:sub;stroke-width:0.26458332"
         d="m 15.056711,256.37587 h -0.253938 v -1.63335 q 0,-0.20378 0.01254,-0.38561 -0.03292,0.0329 -0.07367,0.069 -0.04076,0.036 -0.37307,0.30566 l -0.137942,-0.17869 0.60663,-0.46869 h 0.219453 z" />
      <path
         id="path1182"
         style="font-size:3.2102778px;baseline-shift:sub;stroke-width:0.26458332"
         d="m 17.448744,255.22688 q 0,0.59409 -0.188102,0.88721 -0.186535,0.29313 -0.572145,0.29313 -0.369934,0 -0.562739,-0.2994 -0.192805,-0.30096 -0.192805,-0.88094 0,-0.59879 0.186535,-0.88878 0.186535,-0.29 0.569009,-0.29 0.37307,0 0.565874,0.30254 0.194373,0.30253 0.194373,0.87624 z m -1.252447,0 q 0,0.50004 0.117563,0.72889 0.117564,0.2273 0.374637,0.2273 0.260208,0 0.376205,-0.23043 0.117564,-0.23199 0.117564,-0.72576 0,-0.49377 -0.117564,-0.72263 -0.115997,-0.23042 -0.376205,-0.23042 -0.257073,0 -0.374637,0.22729 -0.117563,0.22572 -0.117563,0.72576 z" />
      <path
         id="path1184"
         style="font-style:normal;font-variant:normal;font-weight:normal;font-stretch:normal;font-family:'Open Sans';-inkscape-font-specification:'Open Sans';stroke-width:0.26458332"
         d="m 19.180129,253.31897 v -0.33039 h 2.242757 v 0.33039 z m 0,0.98633 v -0.33039 h 2.242757 v 0.33039 z" />
      <path
         id="path1186"
         style="font-style:normal;font-variant:normal;font-weight:normal;font-stretch:normal;font-family:'Open Sans';-inkscape-font-specification:'Open Sans';stroke-width:0.26458332"
         d="m 24.726732,255.38809 h -0.390674 v -2.51285 q 0,-0.3135 0.01929,-0.59325 -0.05064,0.0506 -0.113343,0.10611 -0.0627,0.0555 -0.573953,0.47026 l -0.212218,-0.27492 0.933276,-0.72106 h 0.33762 z" />
      <path
         id="path1188"
         style="font-style:normal;font-variant:normal;font-weight:normal;font-stretch:normal;font-family:'Open Sans';-inkscape-font-specification:'Open Sans';stroke-width:0.26458332"
         d="m 27.553088,255.38809 h -0.390674 v -2.51285 q 0,-0.3135 0.01929,-0.59325 -0.05064,0.0506 -0.113343,0.10611 -0.0627,0.0555 -0.573953,0.47026 l -0.212218,-0.27492 0.933276,-0.72106 h 0.33762 z" />
      <path
         id="path1190"
         style="font-style:normal;font-variant:normal;font-weight:normal;font-stretch:normal;font-family:'Open Sans';-inkscape-font-specification:'Open Sans';stroke-width:0.26458332"
         d="m 31.233139,253.62041 q 0,0.91399 -0.289388,1.36495 -0.286976,0.45096 -0.880222,0.45096 -0.569129,0 -0.865752,-0.46061 -0.296623,-0.46302 -0.296623,-1.3553 0,-0.92122 0.286977,-1.36735 0.286976,-0.44614 0.875398,-0.44614 0.573953,0 0.870576,0.46543 0.299034,0.46543 0.299034,1.34806 z m -1.926842,0 q 0,0.76929 0.180868,1.12138 0.180867,0.34968 0.576364,0.34968 0.40032,0 0.578776,-0.3545 0.180868,-0.35691 0.180868,-1.11656 0,-0.75964 -0.180868,-1.11173 -0.178456,-0.3545 -0.578776,-0.3545 -0.395497,0 -0.576364,0.34968 -0.180868,0.34726 -0.180868,1.11655 z" />
      <path
         id="path1192"
         style="font-size:3.2102778px;baseline-shift:sub;stroke-width:0.26458332"
         d="m 33.144668,256.37587 h -1.506385 v -0.22416 l 0.603495,-0.60662 q 0.275883,-0.27902 0.363664,-0.39815 0.08778,-0.11914 0.131671,-0.232 0.04389,-0.11286 0.04389,-0.24296 0,-0.1834 -0.111294,-0.28999 -0.111294,-0.10816 -0.308801,-0.10816 -0.142644,0 -0.271181,0.047 -0.126969,0.047 -0.283721,0.17086 l -0.137941,-0.17713 q 0.316639,-0.26334 0.689708,-0.26334 0.322909,0 0.506308,0.16616 0.1834,0.16459 0.1834,0.4436 0,0.21789 -0.122266,0.43107 -0.122267,0.21318 -0.457716,0.53923 l -0.501606,0.49063 v 0.0125 h 1.178774 z" />
    </g>
    <g
       id="text892-6-5"
       style="font-style:normal;font-variant:normal;font-weight:normal;font-stretch:normal;font-size:4.93888903px;line-height:1.25;font-family:'Gentium Plus';-inkscape-font-specification:'Gentium Plus';letter-spacing:0px;word-spacing:0px;fill:#000000;fill-opacity:1;stroke:none;stroke-width:0.26458332"
       aria-label="-310 = 1012">
      <path
         id="path1195"
         style="font-style:normal;font-variant:normal;font-weight:normal;font-stretch:normal;font-family:'Open Sans';-inkscape-font-specification:'Open Sans';stroke-width:0.26458332"
         d="m 19.365183,274.1003 v -0.36656 h 1.184079 v 0.36656 z" />
      <path
         id="path1197"
         style="font-style:normal;font-variant:normal;font-weight:normal;font-stretch:normal;font-family:'Open Sans';-inkscape-font-specification:'Open Sans';stroke-width:0.26458332"
         d="m 23.180281,272.54483 q 0,0.33762 -0.190513,0.55225 -0.188103,0.21463 -0.535368,0.28698 v 0.0193 q 0.424436,0.0531 0.629419,0.2701 0.204983,0.21704 0.204983,0.56913 0,0.50402 -0.349677,0.77652 -0.349677,0.2701 -0.993566,0.2701 -0.279742,0 -0.513664,-0.0434 -0.23151,-0.041 -0.450963,-0.14711 v -0.38102 q 0.229099,0.11334 0.487137,0.17363 0.260449,0.0579 0.49196,0.0579 0.913983,0 0.913983,-0.71624 0,-0.64147 -1.008034,-0.64147 h -0.347266 v -0.34486 h 0.352089 q 0.412378,0 0.653534,-0.18087 0.241157,-0.18328 0.241157,-0.50643 0,-0.25803 -0.178456,-0.40514 -0.176044,-0.1471 -0.479902,-0.1471 -0.23151,0 -0.436493,0.0627 -0.204984,0.0627 -0.467844,0.23151 l -0.202572,-0.2701 q 0.217041,-0.17122 0.499194,-0.26768 0.284565,-0.0989 0.598069,-0.0989 0.513664,0 0.798229,0.23634 0.284564,0.23392 0.284564,0.64388 z" />
      <path
         id="path1199"
         style="font-size:3.2102778px;baseline-shift:sub;stroke-width:0.26458332"
         d="m 24.701377,276.22874 h -0.253938 v -1.63335 q 0,-0.20378 0.01254,-0.38561 -0.03292,0.0329 -0.07367,0.069 -0.04076,0.036 -0.373069,0.30567 l -0.137942,-0.1787 0.60663,-0.46869 h 0.219452 z" />
      <path
         id="path1201"
         style="font-size:3.2102778px;baseline-shift:sub;stroke-width:0.26458332"
         d="m 27.09341,275.07975 q 0,0.59409 -0.188102,0.88722 -0.186534,0.29312 -0.572144,0.29312 -0.369934,0 -0.562739,-0.29939 -0.192805,-0.30096 -0.192805,-0.88095 0,-0.59879 0.186535,-0.88878 0.186534,-0.28999 0.569009,-0.28999 0.373069,0 0.565874,0.30253 0.194372,0.30253 0.194372,0.87624 z m -1.252447,0 q 0,0.50004 0.117564,0.7289 0.117564,0.22729 0.374637,0.22729 0.260208,0 0.376204,-0.23043 0.117564,-0.23199 0.117564,-0.72576 0,-0.49376 -0.117564,-0.72262 -0.115996,-0.23043 -0.376204,-0.23043 -0.257073,0 -0.374637,0.22729 -0.117564,0.22573 -0.117564,0.72576 z" />
      <path
         id="path1203"
         style="font-style:normal;font-variant:normal;font-weight:normal;font-stretch:normal;font-family:'Open Sans';-inkscape-font-specification:'Open Sans';stroke-width:0.26458332"
         d="m 28.824795,273.17184 v -0.33038 h 2.242758 v 0.33038 z m 0,0.98633 v -0.33038 h 2.242758 v 0.33038 z" />
      <path
         id="path1205"
         style="font-style:normal;font-variant:normal;font-weight:normal;font-stretch:normal;font-family:'Open Sans';-inkscape-font-specification:'Open Sans';stroke-width:0.26458332"
         d="m 34.371398,275.24097 h -0.390673 v -2.51286 q 0,-0.3135 0.01929,-0.59324 -0.05064,0.0506 -0.113344,0.10611 -0.0627,0.0555 -0.573952,0.47025 l -0.212218,-0.27492 0.933276,-0.72105 h 0.337619 z" />
      <path
         id="path1207"
         style="font-style:normal;font-variant:normal;font-weight:normal;font-stretch:normal;font-family:'Open Sans';-inkscape-font-specification:'Open Sans';stroke-width:0.26458332"
         d="m 38.051449,273.47329 q 0,0.91398 -0.289388,1.36495 -0.286976,0.45096 -0.880222,0.45096 -0.56913,0 -0.865752,-0.46061 -0.296623,-0.46302 -0.296623,-1.3553 0,-0.92122 0.286976,-1.36736 0.286977,-0.44614 0.875399,-0.44614 0.573953,0 0.870576,0.46543 0.299034,0.46543 0.299034,1.34807 z m -1.926842,0 q 0,0.76929 0.180868,1.12138 0.180867,0.34967 0.576364,0.34967 0.40032,0 0.578776,-0.3545 0.180868,-0.35691 0.180868,-1.11655 0,-0.75965 -0.180868,-1.11173 -0.178456,-0.3545 -0.578776,-0.3545 -0.395497,0 -0.576364,0.34967 -0.180868,0.34727 -0.180868,1.11656 z" />
      <path
         id="path1209"
         style="font-style:normal;font-variant:normal;font-weight:normal;font-stretch:normal;font-family:'Open Sans';-inkscape-font-specification:'Open Sans';stroke-width:0.26458332"
         d="m 40.024111,275.24097 h -0.390674 v -2.51286 q 0,-0.3135 0.01929,-0.59324 -0.05064,0.0506 -0.113344,0.10611 -0.0627,0.0555 -0.573953,0.47025 l -0.212217,-0.27492 0.933276,-0.72105 h 0.337619 z" />
      <path
         id="path1211"
         style="font-size:3.2102778px;baseline-shift:sub;stroke-width:0.26458332"
         d="M 42.789335,276.22874 H 41.28295 v -0.22415 l 0.603494,-0.60663 q 0.275884,-0.27902 0.363665,-0.39815 0.08778,-0.11913 0.131671,-0.23199 0.04389,-0.11286 0.04389,-0.24297 0,-0.1834 -0.111294,-0.28999 -0.111294,-0.10816 -0.308801,-0.10816 -0.142645,0 -0.271181,0.047 -0.126969,0.047 -0.283721,0.17086 l -0.137941,-0.17713 q 0.316638,-0.26335 0.689708,-0.26335 0.322908,0 0.506308,0.16616 0.1834,0.16459 0.1834,0.44361 0,0.21788 -0.122267,0.43107 -0.122266,0.21318 -0.457715,0.53922 l -0.501606,0.49064 v 0.0125 h 1.178774 z" />
    </g>
  </g>
</svg>
